<?xml version="1.0" encoding="utf-8" standalone="no"?>
<!DOCTYPE svg PUBLIC "-//W3C//DTD SVG 1.1//EN"
  "http://www.w3.org/Graphics/SVG/1.1/DTD/svg11.dtd">
<svg height="1080pt" version="1.1" viewBox="0 0 1440 1080" width="1440pt" xmlns="http://www.w3.org/2000/svg" xmlns:xlink="http://www.w3.org/1999/xlink">
 <metadata>
  <rdf:RDF xmlns:cc="http://creativecommons.org/ns#" xmlns:dc="http://purl.org/dc/elements/1.1/" xmlns:rdf="http://www.w3.org/1999/02/22-rdf-syntax-ns#">
   <cc:Work>
    <dc:type rdf:resource="http://purl.org/dc/dcmitype/StillImage"/>
    <dc:date>2022-01-19T21:31:39.953836</dc:date>
    <dc:format>image/svg+xml</dc:format>
    <dc:creator>
     <cc:Agent>
      <dc:title>Matplotlib v3.4.3, https://matplotlib.org/</dc:title>
     </cc:Agent>
    </dc:creator>
   </cc:Work>
  </rdf:RDF>
 </metadata>
 <defs>
  <style type="text/css">*{stroke-linecap:butt;stroke-linejoin:round;}</style>
 </defs>
 <g id="figure_1">
  <g id="patch_1">
   <path d="M 0 1080 
L 1440 1080 
L 1440 0 
L 0 0 
z
" style="fill:#ffffff;"/>
  </g>
  <g id="axes_1">
   <g id="patch_2">
    <path d="M 296.228571 945 
L 1072.8 945 
L 1072.8 129.6 
L 296.228571 129.6 
z
" style="fill:#eaeaf2;"/>
   </g>
   <g id="matplotlib.axis_1">
    <g id="xtick_1">
     <g id="line2d_1">
      <path clip-path="url(#p59114d7c27)" d="M 473.546428 945 
L 473.546428 129.6 
" style="fill:none;stroke:#ffffff;stroke-linecap:round;stroke-width:0.8;"/>
     </g>
     <g id="text_1">
      <!-- 0.0 -->
      <g style="fill:#262626;" transform="translate(461.731428 964.168281)scale(0.17 -0.17)">
       <defs>
        <path d="M 266 2259 
Q 266 3072 433 3567 
Q 600 4063 929 4331 
Q 1259 4600 1759 4600 
Q 2128 4600 2406 4451 
Q 2684 4303 2865 4023 
Q 3047 3744 3150 3342 
Q 3253 2941 3253 2259 
Q 3253 1453 3087 958 
Q 2922 463 2592 192 
Q 2263 -78 1759 -78 
Q 1097 -78 719 397 
Q 266 969 266 2259 
z
M 844 2259 
Q 844 1131 1108 757 
Q 1372 384 1759 384 
Q 2147 384 2411 759 
Q 2675 1134 2675 2259 
Q 2675 3391 2411 3762 
Q 2147 4134 1753 4134 
Q 1366 4134 1134 3806 
Q 844 3388 844 2259 
z
" id="ArialMT-30" transform="scale(0.015625)"/>
        <path d="M 581 0 
L 581 641 
L 1222 641 
L 1222 0 
L 581 0 
z
" id="ArialMT-2e" transform="scale(0.015625)"/>
       </defs>
       <use xlink:href="#ArialMT-30"/>
       <use x="55.615234" xlink:href="#ArialMT-2e"/>
       <use x="83.398438" xlink:href="#ArialMT-30"/>
      </g>
     </g>
    </g>
    <g id="xtick_2">
     <g id="line2d_2">
      <path clip-path="url(#p59114d7c27)" d="M 667.689285 945 
L 667.689285 129.6 
" style="fill:none;stroke:#ffffff;stroke-linecap:round;stroke-width:0.8;"/>
     </g>
     <g id="text_2">
      <!-- 0.5 -->
      <g style="fill:#262626;" transform="translate(655.874285 964.168281)scale(0.17 -0.17)">
       <defs>
        <path d="M 266 1200 
L 856 1250 
Q 922 819 1161 601 
Q 1400 384 1738 384 
Q 2144 384 2425 690 
Q 2706 997 2706 1503 
Q 2706 1984 2436 2262 
Q 2166 2541 1728 2541 
Q 1456 2541 1237 2417 
Q 1019 2294 894 2097 
L 366 2166 
L 809 4519 
L 3088 4519 
L 3088 3981 
L 1259 3981 
L 1013 2750 
Q 1425 3038 1878 3038 
Q 2478 3038 2890 2622 
Q 3303 2206 3303 1553 
Q 3303 931 2941 478 
Q 2500 -78 1738 -78 
Q 1113 -78 717 272 
Q 322 622 266 1200 
z
" id="ArialMT-35" transform="scale(0.015625)"/>
       </defs>
       <use xlink:href="#ArialMT-30"/>
       <use x="55.615234" xlink:href="#ArialMT-2e"/>
       <use x="83.398438" xlink:href="#ArialMT-35"/>
      </g>
     </g>
    </g>
    <g id="xtick_3">
     <g id="line2d_3">
      <path clip-path="url(#p59114d7c27)" d="M 861.832142 945 
L 861.832142 129.6 
" style="fill:none;stroke:#ffffff;stroke-linecap:round;stroke-width:0.8;"/>
     </g>
     <g id="text_3">
      <!-- 1.0 -->
      <g style="fill:#262626;" transform="translate(850.017142 964.168281)scale(0.17 -0.17)">
       <defs>
        <path d="M 2384 0 
L 1822 0 
L 1822 3584 
Q 1619 3391 1289 3197 
Q 959 3003 697 2906 
L 697 3450 
Q 1169 3672 1522 3987 
Q 1875 4303 2022 4600 
L 2384 4600 
L 2384 0 
z
" id="ArialMT-31" transform="scale(0.015625)"/>
       </defs>
       <use xlink:href="#ArialMT-31"/>
       <use x="55.615234" xlink:href="#ArialMT-2e"/>
       <use x="83.398438" xlink:href="#ArialMT-30"/>
      </g>
     </g>
    </g>
    <g id="xtick_4">
     <g id="line2d_4">
      <path clip-path="url(#p59114d7c27)" d="M 1055.974999 945 
L 1055.974999 129.6 
" style="fill:none;stroke:#ffffff;stroke-linecap:round;stroke-width:0.8;"/>
     </g>
     <g id="text_4">
      <!-- 1.5 -->
      <g style="fill:#262626;" transform="translate(1044.159999 964.168281)scale(0.17 -0.17)">
       <use xlink:href="#ArialMT-31"/>
       <use x="55.615234" xlink:href="#ArialMT-2e"/>
       <use x="83.398438" xlink:href="#ArialMT-35"/>
      </g>
     </g>
    </g>
    <g id="text_5">
     <!-- A -->
     <g style="fill:#262626;" transform="translate(678.511004 984.431094)scale(0.18 -0.18)">
      <defs>
       <path d="M -9 0 
L 1750 4581 
L 2403 4581 
L 4278 0 
L 3588 0 
L 3053 1388 
L 1138 1388 
L 634 0 
L -9 0 
z
M 1313 1881 
L 2866 1881 
L 2388 3150 
Q 2169 3728 2063 4100 
Q 1975 3659 1816 3225 
L 1313 1881 
z
" id="ArialMT-41" transform="scale(0.015625)"/>
      </defs>
      <use xlink:href="#ArialMT-41"/>
     </g>
    </g>
   </g>
   <g id="matplotlib.axis_2">
    <g id="ytick_1">
     <g id="line2d_5">
      <path clip-path="url(#p59114d7c27)" d="M 296.228571 921.815269 
L 1072.8 921.815269 
" style="fill:none;stroke:#ffffff;stroke-linecap:round;stroke-width:0.8;"/>
     </g>
     <g id="text_6">
      <!-- −0.5 -->
      <g style="fill:#262626;" transform="translate(255.669509 927.89941)scale(0.17 -0.17)">
       <defs>
        <path d="M 3381 1997 
L 356 1997 
L 356 2522 
L 3381 2522 
L 3381 1997 
z
" id="ArialMT-2212" transform="scale(0.015625)"/>
       </defs>
       <use xlink:href="#ArialMT-2212"/>
       <use x="58.398438" xlink:href="#ArialMT-30"/>
       <use x="114.013672" xlink:href="#ArialMT-2e"/>
       <use x="141.796875" xlink:href="#ArialMT-35"/>
      </g>
     </g>
    </g>
    <g id="ytick_2">
     <g id="line2d_6">
      <path clip-path="url(#p59114d7c27)" d="M 296.228571 727.672412 
L 1072.8 727.672412 
" style="fill:none;stroke:#ffffff;stroke-linecap:round;stroke-width:0.8;"/>
     </g>
     <g id="text_7">
      <!-- 0.0 -->
      <g style="fill:#262626;" transform="translate(265.598571 733.756553)scale(0.17 -0.17)">
       <use xlink:href="#ArialMT-30"/>
       <use x="55.615234" xlink:href="#ArialMT-2e"/>
       <use x="83.398438" xlink:href="#ArialMT-30"/>
      </g>
     </g>
    </g>
    <g id="ytick_3">
     <g id="line2d_7">
      <path clip-path="url(#p59114d7c27)" d="M 296.228571 533.529555 
L 1072.8 533.529555 
" style="fill:none;stroke:#ffffff;stroke-linecap:round;stroke-width:0.8;"/>
     </g>
     <g id="text_8">
      <!-- 0.5 -->
      <g style="fill:#262626;" transform="translate(265.598571 539.613696)scale(0.17 -0.17)">
       <use xlink:href="#ArialMT-30"/>
       <use x="55.615234" xlink:href="#ArialMT-2e"/>
       <use x="83.398438" xlink:href="#ArialMT-35"/>
      </g>
     </g>
    </g>
    <g id="ytick_4">
     <g id="line2d_8">
      <path clip-path="url(#p59114d7c27)" d="M 296.228571 339.386698 
L 1072.8 339.386698 
" style="fill:none;stroke:#ffffff;stroke-linecap:round;stroke-width:0.8;"/>
     </g>
     <g id="text_9">
      <!-- 1.0 -->
      <g style="fill:#262626;" transform="translate(265.598571 345.470839)scale(0.17 -0.17)">
       <use xlink:href="#ArialMT-31"/>
       <use x="55.615234" xlink:href="#ArialMT-2e"/>
       <use x="83.398438" xlink:href="#ArialMT-30"/>
      </g>
     </g>
    </g>
    <g id="ytick_5">
     <g id="line2d_9">
      <path clip-path="url(#p59114d7c27)" d="M 296.228571 145.243841 
L 1072.8 145.243841 
" style="fill:none;stroke:#ffffff;stroke-linecap:round;stroke-width:0.8;"/>
     </g>
     <g id="text_10">
      <!-- 1.5 -->
      <g style="fill:#262626;" transform="translate(265.598571 151.327981)scale(0.17 -0.17)">
       <use xlink:href="#ArialMT-31"/>
       <use x="55.615234" xlink:href="#ArialMT-2e"/>
       <use x="83.398438" xlink:href="#ArialMT-35"/>
      </g>
     </g>
    </g>
    <g id="text_11">
     <!-- B -->
     <g style="fill:#262626;" transform="translate(248.092009 543.303281)rotate(-90)scale(0.18 -0.18)">
      <defs>
       <path d="M 469 0 
L 469 4581 
L 2188 4581 
Q 2713 4581 3030 4442 
Q 3347 4303 3526 4014 
Q 3706 3725 3706 3409 
Q 3706 3116 3547 2856 
Q 3388 2597 3066 2438 
Q 3481 2316 3704 2022 
Q 3928 1728 3928 1328 
Q 3928 1006 3792 729 
Q 3656 453 3456 303 
Q 3256 153 2954 76 
Q 2653 0 2216 0 
L 469 0 
z
M 1075 2656 
L 2066 2656 
Q 2469 2656 2644 2709 
Q 2875 2778 2992 2937 
Q 3109 3097 3109 3338 
Q 3109 3566 3000 3739 
Q 2891 3913 2687 3977 
Q 2484 4041 1991 4041 
L 1075 4041 
L 1075 2656 
z
M 1075 541 
L 2216 541 
Q 2509 541 2628 563 
Q 2838 600 2978 687 
Q 3119 775 3209 942 
Q 3300 1109 3300 1328 
Q 3300 1584 3169 1773 
Q 3038 1963 2805 2039 
Q 2572 2116 2134 2116 
L 1075 2116 
L 1075 541 
z
" id="ArialMT-42" transform="scale(0.015625)"/>
      </defs>
      <use xlink:href="#ArialMT-42"/>
     </g>
    </g>
   </g>
   <g id="PathCollection_1">
    <path clip-path="url(#p59114d7c27)" d="M 296.228571 906.171429 
L 296.228571 867.342857 
L 296.228571 828.514286 
L 296.228571 789.685714 
L 296.228571 750.857143 
L 296.228571 712.028571 
L 296.228571 673.2 
L 296.228571 634.371429 
L 296.228571 595.542857 
L 296.228571 569.348662 
L 335.057143 572.095141 
L 373.885714 574.616544 
L 412.714286 576.93072 
L 451.542857 579.05435 
L 490.371429 581.003007 
L 529.2 582.791235 
L 568.028571 584.432602 
L 606.857143 585.939772 
L 645.685714 587.324559 
L 684.514286 588.597991 
L 723.342857 589.770363 
L 762.171429 590.851292 
L 801 591.849773 
L 839.828571 592.774226 
L 878.657143 593.632545 
L 917.485714 594.432149 
L 956.314286 595.180025 
L 975.680402 595.542857 
L 995.142857 597.410578 
L 1033.971429 600.988223 
L 1072.8 604.282513 
L 1072.8 634.371429 
L 1072.8 673.2 
L 1072.8 712.028571 
L 1072.8 750.857143 
L 1072.8 789.685714 
L 1072.8 828.514286 
L 1072.8 867.342857 
L 1072.8 906.171429 
L 1072.8 945 
L 1033.971429 945 
L 995.142857 945 
L 956.314286 945 
L 917.485714 945 
L 878.657143 945 
L 839.828571 945 
L 801 945 
L 762.171429 945 
L 723.342857 945 
L 684.514286 945 
L 645.685714 945 
L 606.857143 945 
L 568.028571 945 
L 529.2 945 
L 490.371429 945 
L 451.542857 945 
L 412.714286 945 
L 373.885714 945 
L 335.057143 945 
L 296.228571 945 
z
" style="fill:#760521;"/>
   </g>
   <g id="PathCollection_2">
    <path clip-path="url(#p59114d7c27)" d="M 296.228571 556.714286 
L 296.228571 552.341506 
L 335.057143 553.32403 
L 373.885714 554.255276 
L 412.714286 555.143751 
L 451.542857 555.997599 
L 484.949815 556.714286 
L 490.371429 557.232891 
L 529.2 560.890968 
L 568.028571 564.245611 
L 606.857143 567.32182 
L 645.685714 570.142853 
L 684.514286 572.730344 
L 723.342857 575.10441 
L 762.171429 577.283755 
L 801 579.28577 
L 839.828571 581.126632 
L 878.657143 582.821389 
L 917.485714 584.384055 
L 956.314286 585.827689 
L 995.142857 587.164478 
L 1033.971429 588.405814 
L 1072.8 589.562366 
L 1072.8 595.542857 
L 1072.8 604.282513 
L 1033.971429 600.988223 
L 995.142857 597.410578 
L 975.680402 595.542857 
L 956.314286 595.180025 
L 917.485714 594.432149 
L 878.657143 593.632545 
L 839.828571 592.774226 
L 801 591.849773 
L 762.171429 590.851292 
L 723.342857 589.770363 
L 684.514286 588.597991 
L 645.685714 587.324559 
L 606.857143 585.939772 
L 568.028571 584.432602 
L 529.2 582.791235 
L 490.371429 581.003007 
L 451.542857 579.05435 
L 412.714286 576.93072 
L 373.885714 574.616544 
L 335.057143 572.095141 
L 296.228571 569.348662 
z
" style="fill:#930e26;"/>
   </g>
   <g id="PathCollection_3">
    <path clip-path="url(#p59114d7c27)" d="M 335.057143 546.990315 
L 373.885714 548.28989 
L 412.714286 549.511602 
L 451.542857 550.666517 
L 490.371429 551.76514 
L 529.2 552.817498 
L 568.028571 553.833213 
L 606.857143 554.821586 
L 645.685714 555.791667 
L 682.919982 556.714286 
L 684.514286 556.862698 
L 723.342857 560.438458 
L 762.171429 563.716218 
L 801 566.721768 
L 839.828571 569.479038 
L 878.657143 572.010233 
L 917.485714 574.33596 
L 956.314286 576.475353 
L 995.142857 578.446183 
L 1033.971429 580.264976 
L 1072.8 581.947117 
L 1072.8 589.562366 
L 1033.971429 588.405814 
L 995.142857 587.164478 
L 956.314286 585.827689 
L 917.485714 584.384055 
L 878.657143 582.821389 
L 839.828571 581.126632 
L 801 579.28577 
L 762.171429 577.283755 
L 723.342857 575.10441 
L 684.514286 572.730344 
L 645.685714 570.142853 
L 606.857143 567.32182 
L 568.028571 564.245611 
L 529.2 560.890968 
L 490.371429 557.232891 
L 484.949815 556.714286 
L 451.542857 555.997599 
L 412.714286 555.143751 
L 373.885714 554.255276 
L 335.057143 553.32403 
L 296.228571 552.341506 
L 296.228571 545.601165 
z
" style="fill:#b1182b;"/>
   </g>
   <g id="PathCollection_4">
    <path clip-path="url(#p59114d7c27)" d="M 335.057143 540.656601 
L 373.885714 542.324504 
L 412.714286 543.879453 
L 451.542857 545.335435 
L 490.371429 546.705609 
L 529.2 548.002406 
L 568.028571 549.237628 
L 606.857143 550.422539 
L 645.685714 551.567958 
L 684.514286 552.684346 
L 723.342857 553.78189 
L 762.171429 554.870593 
L 801 555.960353 
L 827.389495 556.714286 
L 839.828571 557.831444 
L 878.657143 561.199077 
L 917.485714 564.287866 
L 956.314286 567.123016 
L 995.142857 569.727887 
L 1033.971429 572.124139 
L 1072.8 574.331868 
L 1072.8 581.947117 
L 1033.971429 580.264976 
L 995.142857 578.446183 
L 956.314286 576.475353 
L 917.485714 574.33596 
L 878.657143 572.010233 
L 839.828571 569.479038 
L 801 566.721768 
L 762.171429 563.716218 
L 723.342857 560.438458 
L 684.514286 556.862698 
L 682.919982 556.714286 
L 645.685714 555.791667 
L 606.857143 554.821586 
L 568.028571 553.833213 
L 529.2 552.817498 
L 490.371429 551.76514 
L 451.542857 550.666517 
L 412.714286 549.511602 
L 373.885714 548.28989 
L 335.057143 546.990315 
L 296.228571 545.601165 
L 296.228571 538.860824 
z
" style="fill:#bf3338;"/>
   </g>
   <g id="PathCollection_5">
    <path clip-path="url(#p59114d7c27)" d="M 335.057143 534.322886 
L 373.885714 536.359117 
L 412.714286 538.247304 
L 451.542857 540.004353 
L 490.371429 541.646077 
L 529.2 543.187314 
L 568.028571 544.642043 
L 606.857143 546.023493 
L 645.685714 547.34425 
L 684.514286 548.616357 
L 723.342857 549.851417 
L 762.171429 551.060683 
L 801 552.255156 
L 839.828571 553.445678 
L 878.657143 554.643019 
L 917.485714 555.857972 
L 944.104887 556.714286 
L 956.314286 557.77068 
L 995.142857 561.009592 
L 1033.971429 563.983301 
L 1072.8 566.716619 
L 1072.8 574.331868 
L 1033.971429 572.124139 
L 995.142857 569.727887 
L 956.314286 567.123016 
L 917.485714 564.287866 
L 878.657143 561.199077 
L 839.828571 557.831444 
L 827.389495 556.714286 
L 801 555.960353 
L 762.171429 554.870593 
L 723.342857 553.78189 
L 684.514286 552.684346 
L 645.685714 551.567958 
L 606.857143 550.422539 
L 568.028571 549.237628 
L 529.2 548.002406 
L 490.371429 546.705609 
L 451.542857 545.335435 
L 412.714286 543.879453 
L 373.885714 542.324504 
L 335.057143 540.656601 
L 296.228571 538.860824 
L 296.228571 532.120483 
z
" style="fill:#cf5246;"/>
   </g>
   <g id="PathCollection_6">
    <path clip-path="url(#p59114d7c27)" d="M 335.057143 527.989172 
L 373.885714 530.393731 
L 412.714286 532.615155 
L 451.542857 534.673271 
L 490.371429 536.586545 
L 529.2 538.372222 
L 568.028571 540.046458 
L 606.857143 541.624446 
L 645.685714 543.120541 
L 684.514286 544.548369 
L 723.342857 545.920943 
L 762.171429 547.250772 
L 801 548.549959 
L 839.828571 549.830308 
L 878.657143 551.103421 
L 917.485714 552.380797 
L 956.314286 553.673925 
L 995.142857 554.994388 
L 1033.971429 556.353952 
L 1043.858986 556.714286 
L 1072.8 559.10137 
L 1072.8 566.716619 
L 1033.971429 563.983301 
L 995.142857 561.009592 
L 956.314286 557.77068 
L 944.104887 556.714286 
L 917.485714 555.857972 
L 878.657143 554.643019 
L 839.828571 553.445678 
L 801 552.255156 
L 762.171429 551.060683 
L 723.342857 549.851417 
L 684.514286 548.616357 
L 645.685714 547.34425 
L 606.857143 546.023493 
L 568.028571 544.642043 
L 529.2 543.187314 
L 490.371429 541.646077 
L 451.542857 540.004353 
L 412.714286 538.247304 
L 373.885714 536.359117 
L 335.057143 534.322886 
L 296.228571 532.120483 
L 296.228571 525.380142 
z
" style="fill:#dc6e57;"/>
   </g>
   <g id="PathCollection_7">
    <path clip-path="url(#p59114d7c27)" d="M 335.057143 521.655457 
L 373.885714 524.428344 
L 412.714286 526.983006 
L 451.542857 529.342189 
L 490.371429 531.527013 
L 529.2 533.55713 
L 568.028571 535.450873 
L 606.857143 537.2254 
L 645.685714 538.896832 
L 684.514286 540.48038 
L 723.342857 541.99047 
L 762.171429 543.440862 
L 801 544.844762 
L 839.828571 546.214938 
L 878.657143 547.563823 
L 917.485714 548.903621 
L 956.314286 550.246409 
L 995.142857 551.604243 
L 1033.971429 552.989255 
L 1072.8 554.413753 
L 1072.8 556.714286 
L 1072.8 559.10137 
L 1043.858986 556.714286 
L 1033.971429 556.353952 
L 995.142857 554.994388 
L 956.314286 553.673925 
L 917.485714 552.380797 
L 878.657143 551.103421 
L 839.828571 549.830308 
L 801 548.549959 
L 762.171429 547.250772 
L 723.342857 545.920943 
L 684.514286 544.548369 
L 645.685714 543.120541 
L 606.857143 541.624446 
L 568.028571 540.046458 
L 529.2 538.372222 
L 490.371429 536.586545 
L 451.542857 534.673271 
L 412.714286 532.615155 
L 373.885714 530.393731 
L 335.057143 527.989172 
L 296.228571 525.380142 
L 296.228571 518.639801 
z
" style="fill:#e8896c;"/>
   </g>
   <g id="PathCollection_8">
    <path clip-path="url(#p59114d7c27)" d="M 296.228571 517.885714 
L 296.228571 514.917769 
L 335.057143 516.52477 
L 366.394833 517.885714 
L 373.885714 518.462958 
L 412.714286 521.350857 
L 451.542857 524.011107 
L 490.371429 526.467481 
L 529.2 528.742038 
L 568.028571 530.855287 
L 606.857143 532.826353 
L 645.685714 534.673123 
L 684.514286 536.412392 
L 723.342857 538.059997 
L 762.171429 539.630951 
L 801 541.139565 
L 839.828571 542.599569 
L 878.657143 544.024226 
L 917.485714 545.426445 
L 956.314286 546.818893 
L 995.142857 548.214099 
L 1033.971429 549.624557 
L 1072.8 551.062839 
L 1072.8 554.413753 
L 1033.971429 552.989255 
L 995.142857 551.604243 
L 956.314286 550.246409 
L 917.485714 548.903621 
L 878.657143 547.563823 
L 839.828571 546.214938 
L 801 544.844762 
L 762.171429 543.440862 
L 723.342857 541.99047 
L 684.514286 540.48038 
L 645.685714 538.896832 
L 606.857143 537.2254 
L 568.028571 535.450873 
L 529.2 533.55713 
L 490.371429 531.527013 
L 451.542857 529.342189 
L 412.714286 526.983006 
L 373.885714 524.428344 
L 335.057143 521.655457 
L 296.228571 518.639801 
z
" style="fill:#f3a481;"/>
   </g>
   <g id="PathCollection_9">
    <path clip-path="url(#p59114d7c27)" d="M 335.057143 513.162864 
L 373.885714 514.820236 
L 412.714286 516.562913 
L 440.703926 517.885714 
L 451.542857 518.680025 
L 490.371429 521.40795 
L 529.2 523.926946 
L 568.028571 526.259702 
L 606.857143 528.427307 
L 645.685714 530.449415 
L 684.514286 532.344403 
L 723.342857 534.129524 
L 762.171429 535.821041 
L 801 537.434368 
L 839.828571 538.984199 
L 878.657143 540.484628 
L 917.485714 541.94927 
L 956.314286 543.391378 
L 995.142857 544.823954 
L 1033.971429 546.25986 
L 1072.8 547.711925 
L 1072.8 551.062839 
L 1033.971429 549.624557 
L 995.142857 548.214099 
L 956.314286 546.818893 
L 917.485714 545.426445 
L 878.657143 544.024226 
L 839.828571 542.599569 
L 801 541.139565 
L 762.171429 539.630951 
L 723.342857 538.059997 
L 684.514286 536.412392 
L 645.685714 534.673123 
L 606.857143 532.826353 
L 568.028571 530.855287 
L 529.2 528.742038 
L 490.371429 526.467481 
L 451.542857 524.011107 
L 412.714286 521.350857 
L 373.885714 518.462958 
L 366.394833 517.885714 
L 335.057143 516.52477 
L 296.228571 514.917769 
L 296.228571 511.575953 
z
" style="fill:#f8bb9e;"/>
   </g>
   <g id="PathCollection_10">
    <path clip-path="url(#p59114d7c27)" d="M 335.057143 509.800958 
L 373.885714 511.426346 
L 412.714286 513.124892 
L 451.542857 514.911748 
L 490.371429 516.802743 
L 511.495898 517.885714 
L 529.2 519.111854 
L 568.028571 521.664117 
L 606.857143 524.028261 
L 645.685714 526.225706 
L 684.514286 528.276415 
L 723.342857 530.19905 
L 762.171429 532.01113 
L 801 533.729171 
L 839.828571 535.36883 
L 878.657143 536.94503 
L 917.485714 538.472094 
L 956.314286 539.963862 
L 995.142857 541.433809 
L 1033.971429 542.895163 
L 1072.8 544.361012 
L 1072.8 547.711925 
L 1033.971429 546.25986 
L 995.142857 544.823954 
L 956.314286 543.391378 
L 917.485714 541.94927 
L 878.657143 540.484628 
L 839.828571 538.984199 
L 801 537.434368 
L 762.171429 535.821041 
L 723.342857 534.129524 
L 684.514286 532.344403 
L 645.685714 530.449415 
L 606.857143 528.427307 
L 568.028571 526.259702 
L 529.2 523.926946 
L 490.371429 521.40795 
L 451.542857 518.680025 
L 440.703926 517.885714 
L 412.714286 516.562913 
L 373.885714 514.820236 
L 335.057143 513.162864 
L 296.228571 511.575953 
L 296.228571 508.234136 
z
" style="fill:#fbd0b9;"/>
   </g>
   <g id="PathCollection_11">
    <path clip-path="url(#p59114d7c27)" d="M 335.057143 506.439051 
L 373.885714 508.032456 
L 412.714286 509.686871 
L 451.542857 511.417092 
L 490.371429 513.238482 
L 529.2 515.167101 
L 568.028571 517.219821 
L 580.053998 517.885714 
L 606.857143 519.629214 
L 645.685714 522.001997 
L 684.514286 524.208426 
L 723.342857 526.268577 
L 762.171429 528.20122 
L 801 530.023974 
L 839.828571 531.75346 
L 878.657143 533.405432 
L 917.485714 534.994918 
L 956.314286 536.536346 
L 995.142857 538.043664 
L 1033.971429 539.530465 
L 1072.8 541.010098 
L 1072.8 544.361012 
L 1033.971429 542.895163 
L 995.142857 541.433809 
L 956.314286 539.963862 
L 917.485714 538.472094 
L 878.657143 536.94503 
L 839.828571 535.36883 
L 801 533.729171 
L 762.171429 532.01113 
L 723.342857 530.19905 
L 684.514286 528.276415 
L 645.685714 526.225706 
L 606.857143 524.028261 
L 568.028571 521.664117 
L 529.2 519.111854 
L 511.495898 517.885714 
L 490.371429 516.802743 
L 451.542857 514.911748 
L 412.714286 513.124892 
L 373.885714 511.426346 
L 335.057143 509.800958 
L 296.228571 508.234136 
L 296.228571 504.892319 
z
" style="fill:#fce0d0;"/>
   </g>
   <g id="PathCollection_12">
    <path clip-path="url(#p59114d7c27)" d="M 335.057143 503.077145 
L 373.885714 504.638565 
L 412.714286 506.24885 
L 451.542857 507.922435 
L 490.371429 509.674221 
L 529.2 511.519692 
L 568.028571 513.475037 
L 606.857143 515.557267 
L 645.685714 517.784346 
L 647.389314 517.885714 
L 684.514286 520.140438 
L 723.342857 522.338104 
L 762.171429 524.391309 
L 801 526.318778 
L 839.828571 528.13809 
L 878.657143 529.865834 
L 917.485714 531.517743 
L 956.314286 533.10883 
L 995.142857 534.653519 
L 1033.971429 536.165768 
L 1072.8 537.659184 
L 1072.8 541.010098 
L 1033.971429 539.530465 
L 995.142857 538.043664 
L 956.314286 536.536346 
L 917.485714 534.994918 
L 878.657143 533.405432 
L 839.828571 531.75346 
L 801 530.023974 
L 762.171429 528.20122 
L 723.342857 526.268577 
L 684.514286 524.208426 
L 645.685714 522.001997 
L 606.857143 519.629214 
L 580.053998 517.885714 
L 568.028571 517.219821 
L 529.2 515.167101 
L 490.371429 513.238482 
L 451.542857 511.417092 
L 412.714286 509.686871 
L 373.885714 508.032456 
L 335.057143 506.439051 
L 296.228571 504.892319 
L 296.228571 501.550503 
z
" style="fill:#f9ebe3;"/>
   </g>
   <g id="PathCollection_13">
    <path clip-path="url(#p59114d7c27)" d="M 335.057143 499.715239 
L 373.885714 501.244675 
L 412.714286 502.810829 
L 451.542857 504.427778 
L 490.371429 506.109959 
L 529.2 507.872284 
L 568.028571 509.730253 
L 606.857143 511.700078 
L 645.685714 513.798797 
L 684.514286 516.044402 
L 714.430684 517.885714 
L 723.342857 518.40763 
L 762.171429 520.581399 
L 801 522.613581 
L 839.828571 524.522721 
L 878.657143 526.326236 
L 917.485714 528.040567 
L 956.314286 529.681314 
L 995.142857 531.263375 
L 1033.971429 532.80107 
L 1072.8 534.30827 
L 1072.8 537.659184 
L 1033.971429 536.165768 
L 995.142857 534.653519 
L 956.314286 533.10883 
L 917.485714 531.517743 
L 878.657143 529.865834 
L 839.828571 528.13809 
L 801 526.318778 
L 762.171429 524.391309 
L 723.342857 522.338104 
L 684.514286 520.140438 
L 647.389314 517.885714 
L 645.685714 517.784346 
L 606.857143 515.557267 
L 568.028571 513.475037 
L 529.2 511.519692 
L 490.371429 509.674221 
L 451.542857 507.922435 
L 412.714286 506.24885 
L 373.885714 504.638565 
L 335.057143 503.077145 
L 296.228571 501.550503 
L 296.228571 498.208686 
z
" style="fill:#f6f7f7;"/>
   </g>
   <g id="PathCollection_14">
    <path clip-path="url(#p59114d7c27)" d="M 335.057143 496.353332 
L 373.885714 497.850785 
L 412.714286 499.372808 
L 451.542857 500.933122 
L 490.371429 502.545698 
L 529.2 504.224875 
L 568.028571 505.98547 
L 606.857143 507.842889 
L 645.685714 509.813249 
L 684.514286 511.913492 
L 723.342857 514.161504 
L 762.171429 516.576244 
L 782.147355 517.885714 
L 801 518.908384 
L 839.828571 520.907351 
L 878.657143 522.786639 
L 917.485714 524.563391 
L 956.314286 526.253798 
L 995.142857 527.87323 
L 1033.971429 529.436373 
L 1072.8 530.957356 
L 1072.8 534.30827 
L 1033.971429 532.80107 
L 995.142857 531.263375 
L 956.314286 529.681314 
L 917.485714 528.040567 
L 878.657143 526.326236 
L 839.828571 524.522721 
L 801 522.613581 
L 762.171429 520.581399 
L 723.342857 518.40763 
L 714.430684 517.885714 
L 684.514286 516.044402 
L 645.685714 513.798797 
L 606.857143 511.700078 
L 568.028571 509.730253 
L 529.2 507.872284 
L 490.371429 506.109959 
L 451.542857 504.427778 
L 412.714286 502.810829 
L 373.885714 501.244675 
L 335.057143 499.715239 
L 296.228571 498.208686 
L 296.228571 494.86687 
z
" style="fill:#e7f0f4;"/>
   </g>
   <g id="PathCollection_15">
    <path clip-path="url(#p59114d7c27)" d="M 335.057143 492.991426 
L 373.885714 494.456895 
L 412.714286 495.934787 
L 451.542857 497.438465 
L 490.371429 498.981437 
L 529.2 500.577467 
L 568.028571 502.240686 
L 606.857143 503.9857 
L 645.685714 505.827701 
L 684.514286 507.782581 
L 723.342857 509.867046 
L 762.171429 512.09873 
L 801 514.496319 
L 839.828571 517.07967 
L 851.447252 517.885714 
L 878.657143 519.247041 
L 917.485714 521.086216 
L 956.314286 522.826282 
L 995.142857 524.483085 
L 1033.971429 526.071676 
L 1072.8 527.606442 
L 1072.8 530.957356 
L 1033.971429 529.436373 
L 995.142857 527.87323 
L 956.314286 526.253798 
L 917.485714 524.563391 
L 878.657143 522.786639 
L 839.828571 520.907351 
L 801 518.908384 
L 782.147355 517.885714 
L 762.171429 516.576244 
L 723.342857 514.161504 
L 684.514286 511.913492 
L 645.685714 509.813249 
L 606.857143 507.842889 
L 568.028571 505.98547 
L 529.2 504.224875 
L 490.371429 502.545698 
L 451.542857 500.933122 
L 412.714286 499.372808 
L 373.885714 497.850785 
L 335.057143 496.353332 
L 296.228571 494.86687 
L 296.228571 491.525053 
z
" style="fill:#d8e9f1;"/>
   </g>
   <g id="PathCollection_16">
    <path clip-path="url(#p59114d7c27)" d="M 335.057143 489.62952 
L 373.885714 491.063005 
L 412.714286 492.496766 
L 451.542857 493.943808 
L 490.371429 495.417175 
L 529.2 496.930058 
L 568.028571 498.495902 
L 606.857143 500.12851 
L 645.685714 501.842152 
L 684.514286 503.65167 
L 723.342857 505.572587 
L 762.171429 507.621216 
L 801 509.814772 
L 839.828571 512.171489 
L 878.657143 514.710735 
L 917.485714 517.453132 
L 923.415601 517.885714 
L 956.314286 519.398766 
L 995.142857 521.09294 
L 1033.971429 522.706978 
L 1072.8 524.255528 
L 1072.8 527.606442 
L 1033.971429 526.071676 
L 995.142857 524.483085 
L 956.314286 522.826282 
L 917.485714 521.086216 
L 878.657143 519.247041 
L 851.447252 517.885714 
L 839.828571 517.07967 
L 801 514.496319 
L 762.171429 512.09873 
L 723.342857 509.867046 
L 684.514286 507.782581 
L 645.685714 505.827701 
L 606.857143 503.9857 
L 568.028571 502.240686 
L 529.2 500.577467 
L 490.371429 498.981437 
L 451.542857 497.438465 
L 412.714286 495.934787 
L 373.885714 494.456895 
L 335.057143 492.991426 
L 296.228571 491.525053 
L 296.228571 488.183237 
z
" style="fill:#c5dfec;"/>
   </g>
   <g id="PathCollection_17">
    <path clip-path="url(#p59114d7c27)" d="M 335.057143 486.267614 
L 373.885714 487.669115 
L 412.714286 489.058745 
L 451.542857 490.449152 
L 490.371429 491.852914 
L 529.2 493.28265 
L 568.028571 494.751118 
L 606.857143 496.271321 
L 645.685714 497.856604 
L 684.514286 499.52076 
L 723.342857 501.278129 
L 762.171429 503.143701 
L 801 505.133225 
L 839.828571 507.263308 
L 878.657143 509.551529 
L 917.485714 512.016547 
L 956.314286 514.678216 
L 995.142857 517.557704 
L 999.446083 517.885714 
L 1033.971429 519.342281 
L 1072.8 520.904614 
L 1072.8 524.255528 
L 1033.971429 522.706978 
L 995.142857 521.09294 
L 956.314286 519.398766 
L 923.415601 517.885714 
L 917.485714 517.453132 
L 878.657143 514.710735 
L 839.828571 512.171489 
L 801 509.814772 
L 762.171429 507.621216 
L 723.342857 505.572587 
L 684.514286 503.65167 
L 645.685714 501.842152 
L 606.857143 500.12851 
L 568.028571 498.495902 
L 529.2 496.930058 
L 490.371429 495.417175 
L 451.542857 493.943808 
L 412.714286 492.496766 
L 373.885714 491.063005 
L 335.057143 489.62952 
L 296.228571 488.183237 
L 296.228571 484.84142 
z
" style="fill:#acd2e5;"/>
   </g>
   <g id="PathCollection_18">
    <path clip-path="url(#p59114d7c27)" d="M 335.057143 482.905707 
L 373.885714 484.275225 
L 412.714286 485.620724 
L 451.542857 486.954495 
L 490.371429 488.288653 
L 529.2 489.635241 
L 568.028571 491.006335 
L 606.857143 492.414132 
L 645.685714 493.871056 
L 684.514286 495.389849 
L 723.342857 496.98367 
L 762.171429 498.666187 
L 801 500.451678 
L 839.828571 502.355127 
L 878.657143 504.392323 
L 917.485714 506.579961 
L 956.314286 508.935747 
L 995.142857 511.478504 
L 1033.971429 514.228276 
L 1072.8 517.206447 
L 1072.8 517.885714 
L 1072.8 520.904614 
L 1033.971429 519.342281 
L 999.446083 517.885714 
L 995.142857 517.557704 
L 956.314286 514.678216 
L 917.485714 512.016547 
L 878.657143 509.551529 
L 839.828571 507.263308 
L 801 505.133225 
L 762.171429 503.143701 
L 723.342857 501.278129 
L 684.514286 499.52076 
L 645.685714 497.856604 
L 606.857143 496.271321 
L 568.028571 494.751118 
L 529.2 493.28265 
L 490.371429 491.852914 
L 451.542857 490.449152 
L 412.714286 489.058745 
L 373.885714 487.669115 
L 335.057143 486.267614 
L 296.228571 484.84142 
L 296.228571 481.499603 
z
" style="fill:#90c4dd;"/>
   </g>
   <g id="PathCollection_19">
    <path clip-path="url(#p59114d7c27)" d="M 296.228571 479.057143 
L 296.228571 476.968966 
L 321.476603 479.057143 
L 335.057143 479.543801 
L 373.885714 480.881335 
L 412.714286 482.182703 
L 451.542857 483.459838 
L 490.371429 484.724391 
L 529.2 485.987833 
L 568.028571 487.261551 
L 606.857143 488.556942 
L 645.685714 489.885507 
L 684.514286 491.258939 
L 723.342857 492.689211 
L 762.171429 494.188673 
L 801 495.770132 
L 839.828571 497.446946 
L 878.657143 499.233117 
L 917.485714 501.143375 
L 956.314286 503.193279 
L 995.142857 505.399303 
L 1033.971429 507.778942 
L 1072.8 510.350802 
L 1072.8 517.206447 
L 1033.971429 514.228276 
L 995.142857 511.478504 
L 956.314286 508.935747 
L 917.485714 506.579961 
L 878.657143 504.392323 
L 839.828571 502.355127 
L 801 500.451678 
L 762.171429 498.666187 
L 723.342857 496.98367 
L 684.514286 495.389849 
L 645.685714 493.871056 
L 606.857143 492.414132 
L 568.028571 491.006335 
L 529.2 489.635241 
L 490.371429 488.288653 
L 451.542857 486.954495 
L 412.714286 485.620724 
L 373.885714 484.275225 
L 335.057143 482.905707 
L 296.228571 481.499603 
z
" style="fill:#71b0d3;"/>
   </g>
   <g id="PathCollection_20">
    <path clip-path="url(#p59114d7c27)" d="M 321.476603 479.057143 
L 296.228571 476.968966 
L 296.228571 469.209742 
L 335.057143 471.962041 
L 373.885714 474.948469 
L 412.714286 478.191392 
L 422.776122 479.057143 
L 451.542857 479.965182 
L 490.371429 481.16013 
L 529.2 482.340425 
L 568.028571 483.516767 
L 606.857143 484.699753 
L 645.685714 485.899959 
L 684.514286 487.128028 
L 723.342857 488.394753 
L 762.171429 489.711159 
L 801 491.088585 
L 839.828571 492.538766 
L 878.657143 494.073911 
L 917.485714 495.70679 
L 956.314286 497.45081 
L 995.142857 499.320102 
L 1033.971429 501.329607 
L 1072.8 503.495157 
L 1072.8 510.350802 
L 1033.971429 507.778942 
L 995.142857 505.399303 
L 956.314286 503.193279 
L 917.485714 501.143375 
L 878.657143 499.233117 
L 839.828571 497.446946 
L 801 495.770132 
L 762.171429 494.188673 
L 723.342857 492.689211 
L 684.514286 491.258939 
L 645.685714 489.885507 
L 606.857143 488.556942 
L 568.028571 487.261551 
L 529.2 485.987833 
L 490.371429 484.724391 
L 451.542857 483.459838 
L 412.714286 482.182703 
L 373.885714 480.881335 
L 335.057143 479.543801 
z
" style="fill:#529dc8;"/>
   </g>
   <g id="PathCollection_21">
    <path clip-path="url(#p59114d7c27)" d="M 335.057143 463.666038 
L 373.885714 466.064984 
L 412.714286 468.66549 
L 451.542857 471.486883 
L 490.371429 474.549768 
L 529.2 477.876119 
L 542.533455 479.057143 
L 568.028571 479.771983 
L 606.857143 480.842564 
L 645.685714 481.914411 
L 684.514286 482.997117 
L 723.342857 484.100294 
L 762.171429 485.233644 
L 801 486.407038 
L 839.828571 487.630585 
L 878.657143 488.914705 
L 917.485714 490.270204 
L 956.314286 491.708341 
L 995.142857 493.240902 
L 1033.971429 494.880273 
L 1072.8 496.639512 
L 1072.8 503.495157 
L 1033.971429 501.329607 
L 995.142857 499.320102 
L 956.314286 497.45081 
L 917.485714 495.70679 
L 878.657143 494.073911 
L 839.828571 492.538766 
L 801 491.088585 
L 762.171429 489.711159 
L 723.342857 488.394753 
L 684.514286 487.128028 
L 645.685714 485.899959 
L 606.857143 484.699753 
L 568.028571 483.516767 
L 529.2 482.340425 
L 490.371429 481.16013 
L 451.542857 479.965182 
L 422.776122 479.057143 
L 412.714286 478.191392 
L 373.885714 474.948469 
L 335.057143 471.962041 
L 296.228571 469.209742 
L 296.228571 461.450517 
z
" style="fill:#3c8abe;"/>
   </g>
   <g id="PathCollection_22">
    <path clip-path="url(#p59114d7c27)" d="M 335.057143 455.370035 
L 373.885714 457.1815 
L 412.714286 459.139588 
L 451.542857 461.259064 
L 490.371429 463.555622 
L 529.2 466.045958 
L 568.028571 468.747841 
L 606.857143 471.680182 
L 645.685714 474.863107 
L 684.514286 478.318033 
L 692.651317 479.057143 
L 723.342857 479.805835 
L 762.171429 480.75613 
L 801 481.725491 
L 839.828571 482.722404 
L 878.657143 483.755499 
L 917.485714 484.833618 
L 956.314286 485.965872 
L 995.142857 487.161701 
L 1033.971429 488.430938 
L 1072.8 489.783867 
L 1072.8 496.639512 
L 1033.971429 494.880273 
L 995.142857 493.240902 
L 956.314286 491.708341 
L 917.485714 490.270204 
L 878.657143 488.914705 
L 839.828571 487.630585 
L 801 486.407038 
L 762.171429 485.233644 
L 723.342857 484.100294 
L 684.514286 482.997117 
L 645.685714 481.914411 
L 606.857143 480.842564 
L 568.028571 479.771983 
L 542.533455 479.057143 
L 529.2 477.876119 
L 490.371429 474.549768 
L 451.542857 471.486883 
L 412.714286 468.66549 
L 373.885714 466.064984 
L 335.057143 463.666038 
L 296.228571 461.450517 
L 296.228571 453.691293 
z
" style="fill:#2e77b5;"/>
   </g>
   <g id="PathCollection_23">
    <path clip-path="url(#p59114d7c27)" d="M 335.057143 447.074031 
L 373.885714 448.298015 
L 412.714286 449.613686 
L 451.542857 451.031245 
L 490.371429 452.561476 
L 529.2 454.215797 
L 568.028571 456.006313 
L 606.857143 457.945858 
L 645.685714 460.048056 
L 684.514286 462.327364 
L 723.342857 464.799129 
L 762.171429 467.479639 
L 801 470.386173 
L 839.828571 473.537057 
L 878.657143 476.951717 
L 901.498823 479.057143 
L 917.485714 479.397033 
L 956.314286 480.223403 
L 995.142857 481.0825 
L 1033.971429 481.981604 
L 1072.8 482.928222 
L 1072.8 489.783867 
L 1033.971429 488.430938 
L 995.142857 487.161701 
L 956.314286 485.965872 
L 917.485714 484.833618 
L 878.657143 483.755499 
L 839.828571 482.722404 
L 801 481.725491 
L 762.171429 480.75613 
L 723.342857 479.805835 
L 692.651317 479.057143 
L 684.514286 478.318033 
L 645.685714 474.863107 
L 606.857143 471.680182 
L 568.028571 468.747841 
L 529.2 466.045958 
L 490.371429 463.555622 
L 451.542857 461.259064 
L 412.714286 459.139588 
L 373.885714 457.1815 
L 335.057143 455.370035 
L 296.228571 453.691293 
L 296.228571 445.932069 
z
" style="fill:#2065ab;"/>
   </g>
   <g id="PathCollection_24">
    <path clip-path="url(#p59114d7c27)" d="M 296.228571 440.228571 
L 296.228571 429.588826 
L 335.057143 432.63616 
L 373.885714 435.927184 
L 412.714286 439.478833 
L 420.798659 440.228571 
L 451.542857 440.803426 
L 490.371429 441.56733 
L 529.2 442.385637 
L 568.028571 443.264784 
L 606.857143 444.211535 
L 645.685714 445.233005 
L 684.514286 446.336695 
L 723.342857 447.530519 
L 762.171429 448.822833 
L 801 450.222461 
L 839.828571 451.738727 
L 878.657143 453.381484 
L 917.485714 455.161138 
L 956.314286 457.088683 
L 995.142857 459.175721 
L 1033.971429 461.434497 
L 1072.8 463.877921 
L 1072.8 479.057143 
L 1072.8 482.928222 
L 1033.971429 481.981604 
L 995.142857 481.0825 
L 956.314286 480.223403 
L 917.485714 479.397033 
L 901.498823 479.057143 
L 878.657143 476.951717 
L 839.828571 473.537057 
L 801 470.386173 
L 762.171429 467.479639 
L 723.342857 464.799129 
L 684.514286 462.327364 
L 645.685714 460.048056 
L 606.857143 457.945858 
L 568.028571 456.006313 
L 529.2 454.215797 
L 490.371429 452.561476 
L 451.542857 451.031245 
L 412.714286 449.613686 
L 373.885714 448.298015 
L 335.057143 447.074031 
L 296.228571 445.932069 
z
" style="fill:#15508d;"/>
   </g>
   <g id="PathCollection_25">
    <path clip-path="url(#p59114d7c27)" d="M 296.228571 401.4 
L 296.228571 362.571429 
L 296.228571 323.742857 
L 296.228571 284.914286 
L 296.228571 246.085714 
L 296.228571 207.257143 
L 296.228571 168.428571 
L 296.228571 129.6 
L 335.057143 129.6 
L 373.885714 129.6 
L 412.714286 129.6 
L 451.542857 129.6 
L 490.371429 129.6 
L 529.2 129.6 
L 568.028571 129.6 
L 606.857143 129.6 
L 645.685714 129.6 
L 684.514286 129.6 
L 723.342857 129.6 
L 762.171429 129.6 
L 801 129.6 
L 839.828571 129.6 
L 878.657143 129.6 
L 917.485714 129.6 
L 956.314286 129.6 
L 995.142857 129.6 
L 1033.971429 129.6 
L 1072.8 129.6 
L 1072.8 168.428571 
L 1072.8 207.257143 
L 1072.8 246.085714 
L 1072.8 284.914286 
L 1072.8 323.742857 
L 1072.8 362.571429 
L 1072.8 401.4 
L 1072.8 440.228571 
L 1072.8 463.877921 
L 1033.971429 461.434497 
L 995.142857 459.175721 
L 956.314286 457.088683 
L 917.485714 455.161138 
L 878.657143 453.381484 
L 839.828571 451.738727 
L 801 450.222461 
L 762.171429 448.822833 
L 723.342857 447.530519 
L 684.514286 446.336695 
L 645.685714 445.233005 
L 606.857143 444.211535 
L 568.028571 443.264784 
L 529.2 442.385637 
L 490.371429 441.56733 
L 451.542857 440.803426 
L 420.798659 440.228571 
L 412.714286 439.478833 
L 373.885714 435.927184 
L 335.057143 432.63616 
L 296.228571 429.588826 
z
" style="fill:#0a3b70;"/>
   </g>
   <g id="PathCollection_26">
    <defs>
     <path d="M 0 3.535534 
C 0.937635 3.535534 1.836992 3.163008 2.5 2.5 
C 3.163008 1.836992 3.535534 0.937635 3.535534 -0 
C 3.535534 -0.937635 3.163008 -1.836992 2.5 -2.5 
C 1.836992 -3.163008 0.937635 -3.535534 0 -3.535534 
C -0.937635 -3.535534 -1.836992 -3.163008 -2.5 -2.5 
C -3.163008 -1.836992 -3.535534 -0.937635 -3.535534 0 
C -3.535534 0.937635 -3.163008 1.836992 -2.5 2.5 
C -1.836992 3.163008 -0.937635 3.535534 0 3.535534 
z
" id="C0_0_dc0f65f0d7"/>
    </defs>
    <g clip-path="url(#p59114d7c27)">
     <use style="fill:#c13639;stroke:#ffffff;" x="413.220951" xlink:href="#C0_0_dc0f65f0d7" y="762.930071"/>
    </g>
    <g clip-path="url(#p59114d7c27)">
     <use style="fill:#c13639;stroke:#ffffff;" x="516.833964" xlink:href="#C0_0_dc0f65f0d7" y="693.060835"/>
    </g>
    <g clip-path="url(#p59114d7c27)">
     <use style="fill:#c13639;stroke:#ffffff;" x="423.926377" xlink:href="#C0_0_dc0f65f0d7" y="765.796317"/>
    </g>
    <g clip-path="url(#p59114d7c27)">
     <use style="fill:#c13639;stroke:#ffffff;" x="462.97372" xlink:href="#C0_0_dc0f65f0d7" y="700.275488"/>
    </g>
    <g clip-path="url(#p59114d7c27)">
     <use style="fill:#c13639;stroke:#ffffff;" x="378.271469" xlink:href="#C0_0_dc0f65f0d7" y="778.85104"/>
    </g>
    <g clip-path="url(#p59114d7c27)">
     <use style="fill:#c13639;stroke:#ffffff;" x="645.452995" xlink:href="#C0_0_dc0f65f0d7" y="609.922164"/>
    </g>
    <g clip-path="url(#p59114d7c27)">
     <use style="fill:#c13639;stroke:#ffffff;" x="348.316299" xlink:href="#C0_0_dc0f65f0d7" y="819.868161"/>
    </g>
    <g clip-path="url(#p59114d7c27)">
     <use style="fill:#c13639;stroke:#ffffff;" x="433.639435" xlink:href="#C0_0_dc0f65f0d7" y="774.651707"/>
    </g>
    <g clip-path="url(#p59114d7c27)">
     <use style="fill:#c13639;stroke:#ffffff;" x="391.71763" xlink:href="#C0_0_dc0f65f0d7" y="866.076033"/>
    </g>
    <g clip-path="url(#p59114d7c27)">
     <use style="fill:#c13639;stroke:#ffffff;" x="467.26983" xlink:href="#C0_0_dc0f65f0d7" y="904.444804"/>
    </g>
    <g clip-path="url(#p59114d7c27)">
     <use style="fill:#c13639;stroke:#ffffff;" x="366.032694" xlink:href="#C0_0_dc0f65f0d7" y="656.98959"/>
    </g>
    <g clip-path="url(#p59114d7c27)">
     <use style="fill:#c13639;stroke:#ffffff;" x="491.837476" xlink:href="#C0_0_dc0f65f0d7" y="827.759518"/>
    </g>
    <g clip-path="url(#p59114d7c27)">
     <use style="fill:#c13639;stroke:#ffffff;" x="487.74367" xlink:href="#C0_0_dc0f65f0d7" y="636.422331"/>
    </g>
    <g clip-path="url(#p59114d7c27)">
     <use style="fill:#c13639;stroke:#ffffff;" x="469.951773" xlink:href="#C0_0_dc0f65f0d7" y="678.508402"/>
    </g>
    <g clip-path="url(#p59114d7c27)">
     <use style="fill:#c13639;stroke:#ffffff;" x="414.297361" xlink:href="#C0_0_dc0f65f0d7" y="758.30475"/>
    </g>
    <g clip-path="url(#p59114d7c27)">
     <use style="fill:#c13639;stroke:#ffffff;" x="363.727355" xlink:href="#C0_0_dc0f65f0d7" y="779.263003"/>
    </g>
    <g clip-path="url(#p59114d7c27)">
     <use style="fill:#c13639;stroke:#ffffff;" x="461.979768" xlink:href="#C0_0_dc0f65f0d7" y="763.54796"/>
    </g>
    <g clip-path="url(#p59114d7c27)">
     <use style="fill:#c13639;stroke:#ffffff;" x="510.884448" xlink:href="#C0_0_dc0f65f0d7" y="736.650156"/>
    </g>
    <g clip-path="url(#p59114d7c27)">
     <use style="fill:#c13639;stroke:#ffffff;" x="507.259338" xlink:href="#C0_0_dc0f65f0d7" y="652.118833"/>
    </g>
    <g clip-path="url(#p59114d7c27)">
     <use style="fill:#c13639;stroke:#ffffff;" x="382.052931" xlink:href="#C0_0_dc0f65f0d7" y="717.310383"/>
    </g>
    <g clip-path="url(#p59114d7c27)">
     <use style="fill:#c13639;stroke:#ffffff;" x="493.124234" xlink:href="#C0_0_dc0f65f0d7" y="661.506151"/>
    </g>
    <g clip-path="url(#p59114d7c27)">
     <use style="fill:#c13639;stroke:#ffffff;" x="485.31375" xlink:href="#C0_0_dc0f65f0d7" y="769.185948"/>
    </g>
    <g clip-path="url(#p59114d7c27)">
     <use style="fill:#c13639;stroke:#ffffff;" x="565.544291" xlink:href="#C0_0_dc0f65f0d7" y="641.376512"/>
    </g>
    <g clip-path="url(#p59114d7c27)">
     <use style="fill:#c13639;stroke:#ffffff;" x="330.923676" xlink:href="#C0_0_dc0f65f0d7" y="726.99561"/>
    </g>
    <g clip-path="url(#p59114d7c27)">
     <use style="fill:#c13639;stroke:#ffffff;" x="629.541551" xlink:href="#C0_0_dc0f65f0d7" y="816.490645"/>
    </g>
    <g clip-path="url(#p59114d7c27)">
     <use style="fill:#c13639;stroke:#ffffff;" x="366.601048" xlink:href="#C0_0_dc0f65f0d7" y="710.841355"/>
    </g>
    <g clip-path="url(#p59114d7c27)">
     <use style="fill:#c13639;stroke:#ffffff;" x="586.427674" xlink:href="#C0_0_dc0f65f0d7" y="696.080494"/>
    </g>
    <g clip-path="url(#p59114d7c27)">
     <use style="fill:#c13639;stroke:#ffffff;" x="382.7188" xlink:href="#C0_0_dc0f65f0d7" y="598.662896"/>
    </g>
    <g clip-path="url(#p59114d7c27)">
     <use style="fill:#c13639;stroke:#ffffff;" x="524.226797" xlink:href="#C0_0_dc0f65f0d7" y="862.983153"/>
    </g>
    <g clip-path="url(#p59114d7c27)">
     <use style="fill:#c13639;stroke:#ffffff;" x="397.9483" xlink:href="#C0_0_dc0f65f0d7" y="636.518337"/>
    </g>
    <g clip-path="url(#p59114d7c27)">
     <use style="fill:#c13639;stroke:#ffffff;" x="398.314246" xlink:href="#C0_0_dc0f65f0d7" y="654.154814"/>
    </g>
    <g clip-path="url(#p59114d7c27)">
     <use style="fill:#c13639;stroke:#ffffff;" x="575.815985" xlink:href="#C0_0_dc0f65f0d7" y="784.17225"/>
    </g>
    <g clip-path="url(#p59114d7c27)">
     <use style="fill:#c13639;stroke:#ffffff;" x="518.925669" xlink:href="#C0_0_dc0f65f0d7" y="674.496162"/>
    </g>
    <g clip-path="url(#p59114d7c27)">
     <use style="fill:#c13639;stroke:#ffffff;" x="462.10214" xlink:href="#C0_0_dc0f65f0d7" y="642.424606"/>
    </g>
    <g clip-path="url(#p59114d7c27)">
     <use style="fill:#c13639;stroke:#ffffff;" x="452.436158" xlink:href="#C0_0_dc0f65f0d7" y="675.033399"/>
    </g>
    <g clip-path="url(#p59114d7c27)">
     <use style="fill:#c13639;stroke:#ffffff;" x="487.823865" xlink:href="#C0_0_dc0f65f0d7" y="649.970171"/>
    </g>
    <g clip-path="url(#p59114d7c27)">
     <use style="fill:#c13639;stroke:#ffffff;" x="589.887003" xlink:href="#C0_0_dc0f65f0d7" y="842.220335"/>
    </g>
    <g clip-path="url(#p59114d7c27)">
     <use style="fill:#c13639;stroke:#ffffff;" x="478.468334" xlink:href="#C0_0_dc0f65f0d7" y="925.242947"/>
    </g>
    <g clip-path="url(#p59114d7c27)">
     <use style="fill:#c13639;stroke:#ffffff;" x="535.298001" xlink:href="#C0_0_dc0f65f0d7" y="707.679833"/>
    </g>
    <g clip-path="url(#p59114d7c27)">
     <use style="fill:#c13639;stroke:#ffffff;" x="475.247114" xlink:href="#C0_0_dc0f65f0d7" y="606.10785"/>
    </g>
    <g clip-path="url(#p59114d7c27)">
     <use style="fill:#c13639;stroke:#ffffff;" x="448.185235" xlink:href="#C0_0_dc0f65f0d7" y="847.347674"/>
    </g>
    <g clip-path="url(#p59114d7c27)">
     <use style="fill:#c13639;stroke:#ffffff;" x="578.30442" xlink:href="#C0_0_dc0f65f0d7" y="720.768946"/>
    </g>
    <g clip-path="url(#p59114d7c27)">
     <use style="fill:#c13639;stroke:#ffffff;" x="550.207758" xlink:href="#C0_0_dc0f65f0d7" y="727.970284"/>
    </g>
    <g clip-path="url(#p59114d7c27)">
     <use style="fill:#c13639;stroke:#ffffff;" x="393.913327" xlink:href="#C0_0_dc0f65f0d7" y="690.48617"/>
    </g>
    <g clip-path="url(#p59114d7c27)">
     <use style="fill:#c13639;stroke:#ffffff;" x="493.377698" xlink:href="#C0_0_dc0f65f0d7" y="769.96779"/>
    </g>
    <g clip-path="url(#p59114d7c27)">
     <use style="fill:#c13639;stroke:#ffffff;" x="418.020371" xlink:href="#C0_0_dc0f65f0d7" y="614.105125"/>
    </g>
    <g clip-path="url(#p59114d7c27)">
     <use style="fill:#c13639;stroke:#ffffff;" x="430.228328" xlink:href="#C0_0_dc0f65f0d7" y="673.723833"/>
    </g>
    <g clip-path="url(#p59114d7c27)">
     <use style="fill:#c13639;stroke:#ffffff;" x="431.381137" xlink:href="#C0_0_dc0f65f0d7" y="741.241235"/>
    </g>
    <g clip-path="url(#p59114d7c27)">
     <use style="fill:#c13639;stroke:#ffffff;" x="455.834001" xlink:href="#C0_0_dc0f65f0d7" y="836.132676"/>
    </g>
    <g clip-path="url(#p59114d7c27)">
     <use style="fill:#c13639;stroke:#ffffff;" x="463.416464" xlink:href="#C0_0_dc0f65f0d7" y="647.726375"/>
    </g>
    <g clip-path="url(#p59114d7c27)">
     <use style="fill:#2f79b5;stroke:#ffffff;" x="357.431162" xlink:href="#C0_0_dc0f65f0d7" y="317.597158"/>
    </g>
    <g clip-path="url(#p59114d7c27)">
     <use style="fill:#2f79b5;stroke:#ffffff;" x="352.34358" xlink:href="#C0_0_dc0f65f0d7" y="414.884947"/>
    </g>
    <g clip-path="url(#p59114d7c27)">
     <use style="fill:#2f79b5;stroke:#ffffff;" x="481.567592" xlink:href="#C0_0_dc0f65f0d7" y="302.855602"/>
    </g>
    <g clip-path="url(#p59114d7c27)">
     <use style="fill:#2f79b5;stroke:#ffffff;" x="414.618932" xlink:href="#C0_0_dc0f65f0d7" y="266.437191"/>
    </g>
    <g clip-path="url(#p59114d7c27)">
     <use style="fill:#2f79b5;stroke:#ffffff;" x="552.034059" xlink:href="#C0_0_dc0f65f0d7" y="215.699637"/>
    </g>
    <g clip-path="url(#p59114d7c27)">
     <use style="fill:#2f79b5;stroke:#ffffff;" x="491.823921" xlink:href="#C0_0_dc0f65f0d7" y="293.741509"/>
    </g>
    <g clip-path="url(#p59114d7c27)">
     <use style="fill:#2f79b5;stroke:#ffffff;" x="450.359849" xlink:href="#C0_0_dc0f65f0d7" y="344.060913"/>
    </g>
    <g clip-path="url(#p59114d7c27)">
     <use style="fill:#2f79b5;stroke:#ffffff;" x="500.738172" xlink:href="#C0_0_dc0f65f0d7" y="223.133274"/>
    </g>
    <g clip-path="url(#p59114d7c27)">
     <use style="fill:#2f79b5;stroke:#ffffff;" x="475.782237" xlink:href="#C0_0_dc0f65f0d7" y="402.528678"/>
    </g>
    <g clip-path="url(#p59114d7c27)">
     <use style="fill:#2f79b5;stroke:#ffffff;" x="414.905412" xlink:href="#C0_0_dc0f65f0d7" y="358.748045"/>
    </g>
    <g clip-path="url(#p59114d7c27)">
     <use style="fill:#2f79b5;stroke:#ffffff;" x="499.309691" xlink:href="#C0_0_dc0f65f0d7" y="256.942048"/>
    </g>
    <g clip-path="url(#p59114d7c27)">
     <use style="fill:#2f79b5;stroke:#ffffff;" x="624.199335" xlink:href="#C0_0_dc0f65f0d7" y="488.543823"/>
    </g>
    <g clip-path="url(#p59114d7c27)">
     <use style="fill:#2f79b5;stroke:#ffffff;" x="488.73629" xlink:href="#C0_0_dc0f65f0d7" y="335.83946"/>
    </g>
    <g clip-path="url(#p59114d7c27)">
     <use style="fill:#2f79b5;stroke:#ffffff;" x="409.447023" xlink:href="#C0_0_dc0f65f0d7" y="263.604157"/>
    </g>
    <g clip-path="url(#p59114d7c27)">
     <use style="fill:#2f79b5;stroke:#ffffff;" x="450.593564" xlink:href="#C0_0_dc0f65f0d7" y="217.238717"/>
    </g>
    <g clip-path="url(#p59114d7c27)">
     <use style="fill:#2f79b5;stroke:#ffffff;" x="458.83933" xlink:href="#C0_0_dc0f65f0d7" y="547.030382"/>
    </g>
    <g clip-path="url(#p59114d7c27)">
     <use style="fill:#2f79b5;stroke:#ffffff;" x="485.130309" xlink:href="#C0_0_dc0f65f0d7" y="332.67572"/>
    </g>
    <g clip-path="url(#p59114d7c27)">
     <use style="fill:#2f79b5;stroke:#ffffff;" x="379.171295" xlink:href="#C0_0_dc0f65f0d7" y="396.825806"/>
    </g>
    <g clip-path="url(#p59114d7c27)">
     <use style="fill:#2f79b5;stroke:#ffffff;" x="530.331915" xlink:href="#C0_0_dc0f65f0d7" y="395.674434"/>
    </g>
    <g clip-path="url(#p59114d7c27)">
     <use style="fill:#2f79b5;stroke:#ffffff;" x="419.061131" xlink:href="#C0_0_dc0f65f0d7" y="354.895617"/>
    </g>
    <g clip-path="url(#p59114d7c27)">
     <use style="fill:#2f79b5;stroke:#ffffff;" x="491.789581" xlink:href="#C0_0_dc0f65f0d7" y="375.915876"/>
    </g>
    <g clip-path="url(#p59114d7c27)">
     <use style="fill:#2f79b5;stroke:#ffffff;" x="422.809902" xlink:href="#C0_0_dc0f65f0d7" y="390.444824"/>
    </g>
    <g clip-path="url(#p59114d7c27)">
     <use style="fill:#2f79b5;stroke:#ffffff;" x="502.87827" xlink:href="#C0_0_dc0f65f0d7" y="419.090005"/>
    </g>
    <g clip-path="url(#p59114d7c27)">
     <use style="fill:#2f79b5;stroke:#ffffff;" x="512.951024" xlink:href="#C0_0_dc0f65f0d7" y="392.830367"/>
    </g>
    <g clip-path="url(#p59114d7c27)">
     <use style="fill:#2f79b5;stroke:#ffffff;" x="312.348377" xlink:href="#C0_0_dc0f65f0d7" y="240.959275"/>
    </g>
    <g clip-path="url(#p59114d7c27)">
     <use style="fill:#2f79b5;stroke:#ffffff;" x="572.154544" xlink:href="#C0_0_dc0f65f0d7" y="299.238045"/>
    </g>
    <g clip-path="url(#p59114d7c27)">
     <use style="fill:#2f79b5;stroke:#ffffff;" x="488.013809" xlink:href="#C0_0_dc0f65f0d7" y="388.956367"/>
    </g>
    <g clip-path="url(#p59114d7c27)">
     <use style="fill:#2f79b5;stroke:#ffffff;" x="548.607067" xlink:href="#C0_0_dc0f65f0d7" y="177.308549"/>
    </g>
    <g clip-path="url(#p59114d7c27)">
     <use style="fill:#2f79b5;stroke:#ffffff;" x="386.475802" xlink:href="#C0_0_dc0f65f0d7" y="289.389666"/>
    </g>
    <g clip-path="url(#p59114d7c27)">
     <use style="fill:#2f79b5;stroke:#ffffff;" x="462.512039" xlink:href="#C0_0_dc0f65f0d7" y="300.03115"/>
    </g>
    <g clip-path="url(#p59114d7c27)">
     <use style="fill:#2f79b5;stroke:#ffffff;" x="510.959953" xlink:href="#C0_0_dc0f65f0d7" y="226.357458"/>
    </g>
    <g clip-path="url(#p59114d7c27)">
     <use style="fill:#2f79b5;stroke:#ffffff;" x="383.562385" xlink:href="#C0_0_dc0f65f0d7" y="432.999043"/>
    </g>
    <g clip-path="url(#p59114d7c27)">
     <use style="fill:#2f79b5;stroke:#ffffff;" x="512.551013" xlink:href="#C0_0_dc0f65f0d7" y="376.300848"/>
    </g>
    <g clip-path="url(#p59114d7c27)">
     <use style="fill:#2f79b5;stroke:#ffffff;" x="456.273696" xlink:href="#C0_0_dc0f65f0d7" y="451.099549"/>
    </g>
    <g clip-path="url(#p59114d7c27)">
     <use style="fill:#2f79b5;stroke:#ffffff;" x="444.456779" xlink:href="#C0_0_dc0f65f0d7" y="372.274748"/>
    </g>
    <g clip-path="url(#p59114d7c27)">
     <use style="fill:#2f79b5;stroke:#ffffff;" x="432.144704" xlink:href="#C0_0_dc0f65f0d7" y="339.009588"/>
    </g>
    <g clip-path="url(#p59114d7c27)">
     <use style="fill:#2f79b5;stroke:#ffffff;" x="555.560417" xlink:href="#C0_0_dc0f65f0d7" y="224.606423"/>
    </g>
    <g clip-path="url(#p59114d7c27)">
     <use style="fill:#2f79b5;stroke:#ffffff;" x="486.072982" xlink:href="#C0_0_dc0f65f0d7" y="449.931612"/>
    </g>
    <g clip-path="url(#p59114d7c27)">
     <use style="fill:#2f79b5;stroke:#ffffff;" x="529.329349" xlink:href="#C0_0_dc0f65f0d7" y="322.639442"/>
    </g>
    <g clip-path="url(#p59114d7c27)">
     <use style="fill:#2f79b5;stroke:#ffffff;" x="516.657063" xlink:href="#C0_0_dc0f65f0d7" y="323.714418"/>
    </g>
    <g clip-path="url(#p59114d7c27)">
     <use style="fill:#2f79b5;stroke:#ffffff;" x="489.980082" xlink:href="#C0_0_dc0f65f0d7" y="318.382495"/>
    </g>
    <g clip-path="url(#p59114d7c27)">
     <use style="fill:#2f79b5;stroke:#ffffff;" x="392.540079" xlink:href="#C0_0_dc0f65f0d7" y="300.587855"/>
    </g>
    <g clip-path="url(#p59114d7c27)">
     <use style="fill:#2f79b5;stroke:#ffffff;" x="548.37144" xlink:href="#C0_0_dc0f65f0d7" y="416.10617"/>
    </g>
    <g clip-path="url(#p59114d7c27)">
     <use style="fill:#2f79b5;stroke:#ffffff;" x="460.056458" xlink:href="#C0_0_dc0f65f0d7" y="389.640313"/>
    </g>
    <g clip-path="url(#p59114d7c27)">
     <use style="fill:#2f79b5;stroke:#ffffff;" x="629.936467" xlink:href="#C0_0_dc0f65f0d7" y="391.65125"/>
    </g>
    <g clip-path="url(#p59114d7c27)">
     <use style="fill:#2f79b5;stroke:#ffffff;" x="452.686432" xlink:href="#C0_0_dc0f65f0d7" y="241.777739"/>
    </g>
    <g clip-path="url(#p59114d7c27)">
     <use style="fill:#2f79b5;stroke:#ffffff;" x="419.467325" xlink:href="#C0_0_dc0f65f0d7" y="256.116795"/>
    </g>
    <g clip-path="url(#p59114d7c27)">
     <use style="fill:#2f79b5;stroke:#ffffff;" x="449.086998" xlink:href="#C0_0_dc0f65f0d7" y="252.614593"/>
    </g>
    <g clip-path="url(#p59114d7c27)">
     <use style="fill:#2f79b5;stroke:#ffffff;" x="348.588745" xlink:href="#C0_0_dc0f65f0d7" y="343.89515"/>
    </g>
    <g clip-path="url(#p59114d7c27)">
     <use style="fill:#2f79b5;stroke:#ffffff;" x="544.708791" xlink:href="#C0_0_dc0f65f0d7" y="354.489857"/>
    </g>
    <g clip-path="url(#p59114d7c27)">
     <use style="fill:#c13639;stroke:#ffffff;" x="942.258424" xlink:href="#C0_0_dc0f65f0d7" y="523.102802"/>
    </g>
    <g clip-path="url(#p59114d7c27)">
     <use style="fill:#c13639;stroke:#ffffff;" x="1005.188621" xlink:href="#C0_0_dc0f65f0d7" y="858.280821"/>
    </g>
    <g clip-path="url(#p59114d7c27)">
     <use style="fill:#c13639;stroke:#ffffff;" x="845.415806" xlink:href="#C0_0_dc0f65f0d7" y="747.528436"/>
    </g>
    <g clip-path="url(#p59114d7c27)">
     <use style="fill:#c13639;stroke:#ffffff;" x="770.438618" xlink:href="#C0_0_dc0f65f0d7" y="762.202597"/>
    </g>
    <g clip-path="url(#p59114d7c27)">
     <use style="fill:#c13639;stroke:#ffffff;" x="724.003861" xlink:href="#C0_0_dc0f65f0d7" y="697.825876"/>
    </g>
    <g clip-path="url(#p59114d7c27)">
     <use style="fill:#c13639;stroke:#ffffff;" x="781.003755" xlink:href="#C0_0_dc0f65f0d7" y="805.929903"/>
    </g>
    <g clip-path="url(#p59114d7c27)">
     <use style="fill:#c13639;stroke:#ffffff;" x="742.792601" xlink:href="#C0_0_dc0f65f0d7" y="842.917835"/>
    </g>
    <g clip-path="url(#p59114d7c27)">
     <use style="fill:#c13639;stroke:#ffffff;" x="767.138885" xlink:href="#C0_0_dc0f65f0d7" y="827.79643"/>
    </g>
    <g clip-path="url(#p59114d7c27)">
     <use style="fill:#c13639;stroke:#ffffff;" x="834.74018" xlink:href="#C0_0_dc0f65f0d7" y="676.422195"/>
    </g>
    <g clip-path="url(#p59114d7c27)">
     <use style="fill:#c13639;stroke:#ffffff;" x="824.456616" xlink:href="#C0_0_dc0f65f0d7" y="671.922176"/>
    </g>
    <g clip-path="url(#p59114d7c27)">
     <use style="fill:#c13639;stroke:#ffffff;" x="846.366759" xlink:href="#C0_0_dc0f65f0d7" y="641.0891"/>
    </g>
    <g clip-path="url(#p59114d7c27)">
     <use style="fill:#c13639;stroke:#ffffff;" x="768.595485" xlink:href="#C0_0_dc0f65f0d7" y="746.407357"/>
    </g>
    <g clip-path="url(#p59114d7c27)">
     <use style="fill:#c13639;stroke:#ffffff;" x="785.642811" xlink:href="#C0_0_dc0f65f0d7" y="889.913066"/>
    </g>
    <g clip-path="url(#p59114d7c27)">
     <use style="fill:#c13639;stroke:#ffffff;" x="809.883262" xlink:href="#C0_0_dc0f65f0d7" y="682.986596"/>
    </g>
    <g clip-path="url(#p59114d7c27)">
     <use style="fill:#c13639;stroke:#ffffff;" x="835.424552" xlink:href="#C0_0_dc0f65f0d7" y="559.63093"/>
    </g>
    <g clip-path="url(#p59114d7c27)">
     <use style="fill:#c13639;stroke:#ffffff;" x="877.224691" xlink:href="#C0_0_dc0f65f0d7" y="526.766884"/>
    </g>
    <g clip-path="url(#p59114d7c27)">
     <use style="fill:#c13639;stroke:#ffffff;" x="1007.964964" xlink:href="#C0_0_dc0f65f0d7" y="773.384931"/>
    </g>
    <g clip-path="url(#p59114d7c27)">
     <use style="fill:#c13639;stroke:#ffffff;" x="835.665937" xlink:href="#C0_0_dc0f65f0d7" y="702.18839"/>
    </g>
    <g clip-path="url(#p59114d7c27)">
     <use style="fill:#c13639;stroke:#ffffff;" x="895.025481" xlink:href="#C0_0_dc0f65f0d7" y="854.137333"/>
    </g>
    <g clip-path="url(#p59114d7c27)">
     <use style="fill:#c13639;stroke:#ffffff;" x="760.375567" xlink:href="#C0_0_dc0f65f0d7" y="801.23611"/>
    </g>
    <g clip-path="url(#p59114d7c27)">
     <use style="fill:#c13639;stroke:#ffffff;" x="800.305955" xlink:href="#C0_0_dc0f65f0d7" y="710.885382"/>
    </g>
    <g clip-path="url(#p59114d7c27)">
     <use style="fill:#c13639;stroke:#ffffff;" x="878.472876" xlink:href="#C0_0_dc0f65f0d7" y="534.039919"/>
    </g>
    <g clip-path="url(#p59114d7c27)">
     <use style="fill:#c13639;stroke:#ffffff;" x="893.305974" xlink:href="#C0_0_dc0f65f0d7" y="703.373873"/>
    </g>
    <g clip-path="url(#p59114d7c27)">
     <use style="fill:#c13639;stroke:#ffffff;" x="878.594223" xlink:href="#C0_0_dc0f65f0d7" y="753.077176"/>
    </g>
    <g clip-path="url(#p59114d7c27)">
     <use style="fill:#c13639;stroke:#ffffff;" x="934.823475" xlink:href="#C0_0_dc0f65f0d7" y="745.668418"/>
    </g>
    <g clip-path="url(#p59114d7c27)">
     <use style="fill:#c13639;stroke:#ffffff;" x="777.740374" xlink:href="#C0_0_dc0f65f0d7" y="807.382751"/>
    </g>
    <g clip-path="url(#p59114d7c27)">
     <use style="fill:#c13639;stroke:#ffffff;" x="918.311728" xlink:href="#C0_0_dc0f65f0d7" y="588.782631"/>
    </g>
    <g clip-path="url(#p59114d7c27)">
     <use style="fill:#c13639;stroke:#ffffff;" x="878.041343" xlink:href="#C0_0_dc0f65f0d7" y="729.521853"/>
    </g>
    <g clip-path="url(#p59114d7c27)">
     <use style="fill:#c13639;stroke:#ffffff;" x="811.142694" xlink:href="#C0_0_dc0f65f0d7" y="733.79079"/>
    </g>
    <g clip-path="url(#p59114d7c27)">
     <use style="fill:#c13639;stroke:#ffffff;" x="861.385005" xlink:href="#C0_0_dc0f65f0d7" y="771.735638"/>
    </g>
    <g clip-path="url(#p59114d7c27)">
     <use style="fill:#c13639;stroke:#ffffff;" x="871.072358" xlink:href="#C0_0_dc0f65f0d7" y="706.230409"/>
    </g>
    <g clip-path="url(#p59114d7c27)">
     <use style="fill:#c13639;stroke:#ffffff;" x="830.557752" xlink:href="#C0_0_dc0f65f0d7" y="795.858491"/>
    </g>
    <g clip-path="url(#p59114d7c27)">
     <use style="fill:#c13639;stroke:#ffffff;" x="773.395635" xlink:href="#C0_0_dc0f65f0d7" y="764.279203"/>
    </g>
    <g clip-path="url(#p59114d7c27)">
     <use style="fill:#c13639;stroke:#ffffff;" x="781.138139" xlink:href="#C0_0_dc0f65f0d7" y="782.580026"/>
    </g>
    <g clip-path="url(#p59114d7c27)">
     <use style="fill:#c13639;stroke:#ffffff;" x="805.135589" xlink:href="#C0_0_dc0f65f0d7" y="697.594718"/>
    </g>
    <g clip-path="url(#p59114d7c27)">
     <use style="fill:#c13639;stroke:#ffffff;" x="843.498805" xlink:href="#C0_0_dc0f65f0d7" y="783.948916"/>
    </g>
    <g clip-path="url(#p59114d7c27)">
     <use style="fill:#c13639;stroke:#ffffff;" x="841.129853" xlink:href="#C0_0_dc0f65f0d7" y="680.40182"/>
    </g>
    <g clip-path="url(#p59114d7c27)">
     <use style="fill:#c13639;stroke:#ffffff;" x="868.653741" xlink:href="#C0_0_dc0f65f0d7" y="824.53354"/>
    </g>
    <g clip-path="url(#p59114d7c27)">
     <use style="fill:#c13639;stroke:#ffffff;" x="913.012627" xlink:href="#C0_0_dc0f65f0d7" y="666.083014"/>
    </g>
    <g clip-path="url(#p59114d7c27)">
     <use style="fill:#c13639;stroke:#ffffff;" x="982.393126" xlink:href="#C0_0_dc0f65f0d7" y="715.702319"/>
    </g>
    <g clip-path="url(#p59114d7c27)">
     <use style="fill:#c13639;stroke:#ffffff;" x="889.869168" xlink:href="#C0_0_dc0f65f0d7" y="716.386597"/>
    </g>
    <g clip-path="url(#p59114d7c27)">
     <use style="fill:#c13639;stroke:#ffffff;" x="825.284298" xlink:href="#C0_0_dc0f65f0d7" y="714.023079"/>
    </g>
    <g clip-path="url(#p59114d7c27)">
     <use style="fill:#c13639;stroke:#ffffff;" x="891.559674" xlink:href="#C0_0_dc0f65f0d7" y="688.875086"/>
    </g>
    <g clip-path="url(#p59114d7c27)">
     <use style="fill:#c13639;stroke:#ffffff;" x="935.973863" xlink:href="#C0_0_dc0f65f0d7" y="651.227123"/>
    </g>
    <g clip-path="url(#p59114d7c27)">
     <use style="fill:#c13639;stroke:#ffffff;" x="751.497938" xlink:href="#C0_0_dc0f65f0d7" y="661.319182"/>
    </g>
    <g clip-path="url(#p59114d7c27)">
     <use style="fill:#c13639;stroke:#ffffff;" x="752.064256" xlink:href="#C0_0_dc0f65f0d7" y="686.362735"/>
    </g>
    <g clip-path="url(#p59114d7c27)">
     <use style="fill:#c13639;stroke:#ffffff;" x="869.887808" xlink:href="#C0_0_dc0f65f0d7" y="667.088868"/>
    </g>
    <g clip-path="url(#p59114d7c27)">
     <use style="fill:#c13639;stroke:#ffffff;" x="772.729518" xlink:href="#C0_0_dc0f65f0d7" y="687.507506"/>
    </g>
    <g clip-path="url(#p59114d7c27)">
     <use style="fill:#c13639;stroke:#ffffff;" x="925.215197" xlink:href="#C0_0_dc0f65f0d7" y="718.38396"/>
    </g>
    <g clip-path="url(#p59114d7c27)">
     <use style="fill:#c13639;stroke:#ffffff;" x="926.988779" xlink:href="#C0_0_dc0f65f0d7" y="727.914785"/>
    </g>
    <g clip-path="url(#p59114d7c27)">
     <use style="fill:#2f79b5;stroke:#ffffff;" x="672.467413" xlink:href="#C0_0_dc0f65f0d7" y="398.126945"/>
    </g>
    <g clip-path="url(#p59114d7c27)">
     <use style="fill:#2f79b5;stroke:#ffffff;" x="981.706912" xlink:href="#C0_0_dc0f65f0d7" y="394.263166"/>
    </g>
    <g clip-path="url(#p59114d7c27)">
     <use style="fill:#2f79b5;stroke:#ffffff;" x="941.601534" xlink:href="#C0_0_dc0f65f0d7" y="207.299555"/>
    </g>
    <g clip-path="url(#p59114d7c27)">
     <use style="fill:#2f79b5;stroke:#ffffff;" x="878.183535" xlink:href="#C0_0_dc0f65f0d7" y="298.536143"/>
    </g>
    <g clip-path="url(#p59114d7c27)">
     <use style="fill:#2f79b5;stroke:#ffffff;" x="793.006846" xlink:href="#C0_0_dc0f65f0d7" y="462.936074"/>
    </g>
    <g clip-path="url(#p59114d7c27)">
     <use style="fill:#2f79b5;stroke:#ffffff;" x="801.72549" xlink:href="#C0_0_dc0f65f0d7" y="352.507519"/>
    </g>
    <g clip-path="url(#p59114d7c27)">
     <use style="fill:#2f79b5;stroke:#ffffff;" x="947.949408" xlink:href="#C0_0_dc0f65f0d7" y="318.772738"/>
    </g>
    <g clip-path="url(#p59114d7c27)">
     <use style="fill:#2f79b5;stroke:#ffffff;" x="776.094891" xlink:href="#C0_0_dc0f65f0d7" y="390.800164"/>
    </g>
    <g clip-path="url(#p59114d7c27)">
     <use style="fill:#2f79b5;stroke:#ffffff;" x="833.284781" xlink:href="#C0_0_dc0f65f0d7" y="281.112377"/>
    </g>
    <g clip-path="url(#p59114d7c27)">
     <use style="fill:#2f79b5;stroke:#ffffff;" x="948.052267" xlink:href="#C0_0_dc0f65f0d7" y="402.680831"/>
    </g>
    <g clip-path="url(#p59114d7c27)">
     <use style="fill:#2f79b5;stroke:#ffffff;" x="981.982445" xlink:href="#C0_0_dc0f65f0d7" y="321.291431"/>
    </g>
    <g clip-path="url(#p59114d7c27)">
     <use style="fill:#2f79b5;stroke:#ffffff;" x="851.6099" xlink:href="#C0_0_dc0f65f0d7" y="286.428104"/>
    </g>
    <g clip-path="url(#p59114d7c27)">
     <use style="fill:#2f79b5;stroke:#ffffff;" x="1007.341974" xlink:href="#C0_0_dc0f65f0d7" y="447.451992"/>
    </g>
    <g clip-path="url(#p59114d7c27)">
     <use style="fill:#2f79b5;stroke:#ffffff;" x="919.263927" xlink:href="#C0_0_dc0f65f0d7" y="295.468272"/>
    </g>
    <g clip-path="url(#p59114d7c27)">
     <use style="fill:#2f79b5;stroke:#ffffff;" x="950.386979" xlink:href="#C0_0_dc0f65f0d7" y="238.640598"/>
    </g>
    <g clip-path="url(#p59114d7c27)">
     <use style="fill:#2f79b5;stroke:#ffffff;" x="947.591497" xlink:href="#C0_0_dc0f65f0d7" y="232.939254"/>
    </g>
    <g clip-path="url(#p59114d7c27)">
     <use style="fill:#2f79b5;stroke:#ffffff;" x="958.686812" xlink:href="#C0_0_dc0f65f0d7" y="352.516862"/>
    </g>
    <g clip-path="url(#p59114d7c27)">
     <use style="fill:#2f79b5;stroke:#ffffff;" x="943.357771" xlink:href="#C0_0_dc0f65f0d7" y="338.356552"/>
    </g>
    <g clip-path="url(#p59114d7c27)">
     <use style="fill:#2f79b5;stroke:#ffffff;" x="971.653836" xlink:href="#C0_0_dc0f65f0d7" y="254.544001"/>
    </g>
    <g clip-path="url(#p59114d7c27)">
     <use style="fill:#2f79b5;stroke:#ffffff;" x="863.75861" xlink:href="#C0_0_dc0f65f0d7" y="305.112844"/>
    </g>
    <g clip-path="url(#p59114d7c27)">
     <use style="fill:#2f79b5;stroke:#ffffff;" x="918.657459" xlink:href="#C0_0_dc0f65f0d7" y="298.591877"/>
    </g>
    <g clip-path="url(#p59114d7c27)">
     <use style="fill:#2f79b5;stroke:#ffffff;" x="845.281135" xlink:href="#C0_0_dc0f65f0d7" y="334.866836"/>
    </g>
    <g clip-path="url(#p59114d7c27)">
     <use style="fill:#2f79b5;stroke:#ffffff;" x="897.203029" xlink:href="#C0_0_dc0f65f0d7" y="449.043127"/>
    </g>
    <g clip-path="url(#p59114d7c27)">
     <use style="fill:#2f79b5;stroke:#ffffff;" x="926.428025" xlink:href="#C0_0_dc0f65f0d7" y="335.034092"/>
    </g>
    <g clip-path="url(#p59114d7c27)">
     <use style="fill:#2f79b5;stroke:#ffffff;" x="921.170075" xlink:href="#C0_0_dc0f65f0d7" y="473.166125"/>
    </g>
    <g clip-path="url(#p59114d7c27)">
     <use style="fill:#2f79b5;stroke:#ffffff;" x="912.452518" xlink:href="#C0_0_dc0f65f0d7" y="488.314769"/>
    </g>
    <g clip-path="url(#p59114d7c27)">
     <use style="fill:#2f79b5;stroke:#ffffff;" x="791.181327" xlink:href="#C0_0_dc0f65f0d7" y="380.35355"/>
    </g>
    <g clip-path="url(#p59114d7c27)">
     <use style="fill:#2f79b5;stroke:#ffffff;" x="987.032346" xlink:href="#C0_0_dc0f65f0d7" y="234.252373"/>
    </g>
    <g clip-path="url(#p59114d7c27)">
     <use style="fill:#2f79b5;stroke:#ffffff;" x="828.381844" xlink:href="#C0_0_dc0f65f0d7" y="309.398952"/>
    </g>
    <g clip-path="url(#p59114d7c27)">
     <use style="fill:#2f79b5;stroke:#ffffff;" x="861.102053" xlink:href="#C0_0_dc0f65f0d7" y="415.353223"/>
    </g>
    <g clip-path="url(#p59114d7c27)">
     <use style="fill:#2f79b5;stroke:#ffffff;" x="882.568012" xlink:href="#C0_0_dc0f65f0d7" y="422.685499"/>
    </g>
    <g clip-path="url(#p59114d7c27)">
     <use style="fill:#2f79b5;stroke:#ffffff;" x="802.597507" xlink:href="#C0_0_dc0f65f0d7" y="313.075946"/>
    </g>
    <g clip-path="url(#p59114d7c27)">
     <use style="fill:#2f79b5;stroke:#ffffff;" x="905.039551" xlink:href="#C0_0_dc0f65f0d7" y="419.244777"/>
    </g>
    <g clip-path="url(#p59114d7c27)">
     <use style="fill:#2f79b5;stroke:#ffffff;" x="874.773675" xlink:href="#C0_0_dc0f65f0d7" y="251.659641"/>
    </g>
    <g clip-path="url(#p59114d7c27)">
     <use style="fill:#2f79b5;stroke:#ffffff;" x="903.335708" xlink:href="#C0_0_dc0f65f0d7" y="334.817055"/>
    </g>
    <g clip-path="url(#p59114d7c27)">
     <use style="fill:#2f79b5;stroke:#ffffff;" x="892.246497" xlink:href="#C0_0_dc0f65f0d7" y="352.02279"/>
    </g>
    <g clip-path="url(#p59114d7c27)">
     <use style="fill:#2f79b5;stroke:#ffffff;" x="821.472171" xlink:href="#C0_0_dc0f65f0d7" y="251.923975"/>
    </g>
    <g clip-path="url(#p59114d7c27)">
     <use style="fill:#2f79b5;stroke:#ffffff;" x="808.959256" xlink:href="#C0_0_dc0f65f0d7" y="363.145879"/>
    </g>
    <g clip-path="url(#p59114d7c27)">
     <use style="fill:#2f79b5;stroke:#ffffff;" x="784.980846" xlink:href="#C0_0_dc0f65f0d7" y="474.778183"/>
    </g>
    <g clip-path="url(#p59114d7c27)">
     <use style="fill:#2f79b5;stroke:#ffffff;" x="879.458693" xlink:href="#C0_0_dc0f65f0d7" y="302.514189"/>
    </g>
    <g clip-path="url(#p59114d7c27)">
     <use style="fill:#2f79b5;stroke:#ffffff;" x="699.056335" xlink:href="#C0_0_dc0f65f0d7" y="394.679201"/>
    </g>
    <g clip-path="url(#p59114d7c27)">
     <use style="fill:#2f79b5;stroke:#ffffff;" x="876.892712" xlink:href="#C0_0_dc0f65f0d7" y="337.513264"/>
    </g>
    <g clip-path="url(#p59114d7c27)">
     <use style="fill:#2f79b5;stroke:#ffffff;" x="932.102089" xlink:href="#C0_0_dc0f65f0d7" y="300.059258"/>
    </g>
    <g clip-path="url(#p59114d7c27)">
     <use style="fill:#2f79b5;stroke:#ffffff;" x="1030.707723" xlink:href="#C0_0_dc0f65f0d7" y="238.374366"/>
    </g>
    <g clip-path="url(#p59114d7c27)">
     <use style="fill:#2f79b5;stroke:#ffffff;" x="870.341803" xlink:href="#C0_0_dc0f65f0d7" y="297.450437"/>
    </g>
    <g clip-path="url(#p59114d7c27)">
     <use style="fill:#2f79b5;stroke:#ffffff;" x="748.000584" xlink:href="#C0_0_dc0f65f0d7" y="399.452246"/>
    </g>
    <g clip-path="url(#p59114d7c27)">
     <use style="fill:#2f79b5;stroke:#ffffff;" x="913.279731" xlink:href="#C0_0_dc0f65f0d7" y="277.277209"/>
    </g>
    <g clip-path="url(#p59114d7c27)">
     <use style="fill:#2f79b5;stroke:#ffffff;" x="759.145602" xlink:href="#C0_0_dc0f65f0d7" y="305.330079"/>
    </g>
    <g clip-path="url(#p59114d7c27)">
     <use style="fill:#2f79b5;stroke:#ffffff;" x="925.525069" xlink:href="#C0_0_dc0f65f0d7" y="347.017291"/>
    </g>
    <g clip-path="url(#p59114d7c27)">
     <use style="fill:#2f79b5;stroke:#ffffff;" x="855.315808" xlink:href="#C0_0_dc0f65f0d7" y="272.860313"/>
    </g>
   </g>
   <g id="patch_3">
    <path d="M 296.228571 945 
L 296.228571 129.6 
" style="fill:none;stroke:#ffffff;stroke-linecap:square;stroke-linejoin:miter;stroke-width:0.8;"/>
   </g>
   <g id="patch_4">
    <path d="M 1072.8 945 
L 1072.8 129.6 
" style="fill:none;stroke:#ffffff;stroke-linecap:square;stroke-linejoin:miter;stroke-width:0.8;"/>
   </g>
   <g id="patch_5">
    <path d="M 296.228571 945 
L 1072.8 945 
" style="fill:none;stroke:#ffffff;stroke-linecap:square;stroke-linejoin:miter;stroke-width:0.8;"/>
   </g>
   <g id="patch_6">
    <path d="M 296.228571 129.6 
L 1072.8 129.6 
" style="fill:none;stroke:#ffffff;stroke-linecap:square;stroke-linejoin:miter;stroke-width:0.8;"/>
   </g>
   <g id="text_12">
    <!-- A XNOR B -->
    <g style="fill:#262626;" transform="translate(641.999129 123.6)scale(0.18 -0.18)">
     <defs>
      <path id="ArialMT-20" transform="scale(0.015625)"/>
      <path d="M 28 0 
L 1800 2388 
L 238 4581 
L 959 4581 
L 1791 3406 
Q 2050 3041 2159 2844 
Q 2313 3094 2522 3366 
L 3444 4581 
L 4103 4581 
L 2494 2422 
L 4228 0 
L 3478 0 
L 2325 1634 
Q 2228 1775 2125 1941 
Q 1972 1691 1906 1597 
L 756 0 
L 28 0 
z
" id="ArialMT-58" transform="scale(0.015625)"/>
      <path d="M 488 0 
L 488 4581 
L 1109 4581 
L 3516 984 
L 3516 4581 
L 4097 4581 
L 4097 0 
L 3475 0 
L 1069 3600 
L 1069 0 
L 488 0 
z
" id="ArialMT-4e" transform="scale(0.015625)"/>
      <path d="M 309 2231 
Q 309 3372 921 4017 
Q 1534 4663 2503 4663 
Q 3138 4663 3647 4359 
Q 4156 4056 4423 3514 
Q 4691 2972 4691 2284 
Q 4691 1588 4409 1038 
Q 4128 488 3612 205 
Q 3097 -78 2500 -78 
Q 1853 -78 1343 234 
Q 834 547 571 1087 
Q 309 1628 309 2231 
z
M 934 2222 
Q 934 1394 1379 917 
Q 1825 441 2497 441 
Q 3181 441 3623 922 
Q 4066 1403 4066 2288 
Q 4066 2847 3877 3264 
Q 3688 3681 3323 3911 
Q 2959 4141 2506 4141 
Q 1863 4141 1398 3698 
Q 934 3256 934 2222 
z
" id="ArialMT-4f" transform="scale(0.015625)"/>
      <path d="M 503 0 
L 503 4581 
L 2534 4581 
Q 3147 4581 3465 4457 
Q 3784 4334 3975 4021 
Q 4166 3709 4166 3331 
Q 4166 2844 3850 2509 
Q 3534 2175 2875 2084 
Q 3116 1969 3241 1856 
Q 3506 1613 3744 1247 
L 4541 0 
L 3778 0 
L 3172 953 
Q 2906 1366 2734 1584 
Q 2563 1803 2427 1890 
Q 2291 1978 2150 2013 
Q 2047 2034 1813 2034 
L 1109 2034 
L 1109 0 
L 503 0 
z
M 1109 2559 
L 2413 2559 
Q 2828 2559 3062 2645 
Q 3297 2731 3419 2920 
Q 3541 3109 3541 3331 
Q 3541 3656 3305 3865 
Q 3069 4075 2559 4075 
L 1109 4075 
L 1109 2559 
z
" id="ArialMT-52" transform="scale(0.015625)"/>
     </defs>
     <use xlink:href="#ArialMT-41"/>
     <use x="61.199219" xlink:href="#ArialMT-20"/>
     <use x="88.982422" xlink:href="#ArialMT-58"/>
     <use x="155.681641" xlink:href="#ArialMT-4e"/>
     <use x="227.898438" xlink:href="#ArialMT-4f"/>
     <use x="305.681641" xlink:href="#ArialMT-52"/>
     <use x="377.898438" xlink:href="#ArialMT-20"/>
     <use x="405.681641" xlink:href="#ArialMT-42"/>
    </g>
   </g>
  </g>
  <g id="axes_2">
   <g id="patch_7">
    <path d="M 1128.6 945 
L 1169.37 945 
L 1169.37 129.6 
L 1128.6 129.6 
z
" style="fill:#eaeaf2;"/>
   </g>
   <g id="patch_8">
    <path clip-path="url(#pb22c55359e)" d="M 1128.6 945 
L 1128.6 912.384 
L 1128.6 162.216 
L 1128.6 129.6 
L 1169.37 129.6 
L 1169.37 162.216 
L 1169.37 912.384 
L 1169.37 945 
L 1169.37 945 
z
" style="fill:#eaeaf2;stroke:#eaeaf2;stroke-linejoin:miter;stroke-width:0.01;"/>
   </g>
   <g id="matplotlib.axis_3"/>
   <g id="matplotlib.axis_4">
    <g id="ytick_6">
     <g id="line2d_10">
      <defs>
       <path d="M 0 0 
L 3.5 0 
" id="m7390c7d622" style="stroke:#262626;stroke-width:0.8;"/>
      </defs>
      <g>
       <use style="fill:#262626;stroke:#262626;stroke-width:0.8;" x="1169.37" xlink:href="#m7390c7d622" y="945"/>
      </g>
     </g>
     <g id="text_13">
      <!-- 0.00 -->
      <g style="fill:#262626;" transform="translate(1176.37 948.578906)scale(0.1 -0.1)">
       <use xlink:href="#ArialMT-30"/>
       <use x="55.615234" xlink:href="#ArialMT-2e"/>
       <use x="83.398438" xlink:href="#ArialMT-30"/>
       <use x="139.013672" xlink:href="#ArialMT-30"/>
      </g>
     </g>
    </g>
    <g id="ytick_7">
     <g id="line2d_11">
      <g>
       <use style="fill:#262626;stroke:#262626;stroke-width:0.8;" x="1169.37" xlink:href="#m7390c7d622" y="847.152"/>
      </g>
     </g>
     <g id="text_14">
      <!-- 0.12 -->
      <g style="fill:#262626;" transform="translate(1176.37 850.730906)scale(0.1 -0.1)">
       <defs>
        <path d="M 3222 541 
L 3222 0 
L 194 0 
Q 188 203 259 391 
Q 375 700 629 1000 
Q 884 1300 1366 1694 
Q 2113 2306 2375 2664 
Q 2638 3022 2638 3341 
Q 2638 3675 2398 3904 
Q 2159 4134 1775 4134 
Q 1369 4134 1125 3890 
Q 881 3647 878 3216 
L 300 3275 
Q 359 3922 746 4261 
Q 1134 4600 1788 4600 
Q 2447 4600 2831 4234 
Q 3216 3869 3216 3328 
Q 3216 3053 3103 2787 
Q 2991 2522 2730 2228 
Q 2469 1934 1863 1422 
Q 1356 997 1212 845 
Q 1069 694 975 541 
L 3222 541 
z
" id="ArialMT-32" transform="scale(0.015625)"/>
       </defs>
       <use xlink:href="#ArialMT-30"/>
       <use x="55.615234" xlink:href="#ArialMT-2e"/>
       <use x="83.398438" xlink:href="#ArialMT-31"/>
       <use x="139.013672" xlink:href="#ArialMT-32"/>
      </g>
     </g>
    </g>
    <g id="ytick_8">
     <g id="line2d_12">
      <g>
       <use style="fill:#262626;stroke:#262626;stroke-width:0.8;" x="1169.37" xlink:href="#m7390c7d622" y="749.304"/>
      </g>
     </g>
     <g id="text_15">
      <!-- 0.24 -->
      <g style="fill:#262626;" transform="translate(1176.37 752.882906)scale(0.1 -0.1)">
       <defs>
        <path d="M 2069 0 
L 2069 1097 
L 81 1097 
L 81 1613 
L 2172 4581 
L 2631 4581 
L 2631 1613 
L 3250 1613 
L 3250 1097 
L 2631 1097 
L 2631 0 
L 2069 0 
z
M 2069 1613 
L 2069 3678 
L 634 1613 
L 2069 1613 
z
" id="ArialMT-34" transform="scale(0.015625)"/>
       </defs>
       <use xlink:href="#ArialMT-30"/>
       <use x="55.615234" xlink:href="#ArialMT-2e"/>
       <use x="83.398438" xlink:href="#ArialMT-32"/>
       <use x="139.013672" xlink:href="#ArialMT-34"/>
      </g>
     </g>
    </g>
    <g id="ytick_9">
     <g id="line2d_13">
      <g>
       <use style="fill:#262626;stroke:#262626;stroke-width:0.8;" x="1169.37" xlink:href="#m7390c7d622" y="651.456"/>
      </g>
     </g>
     <g id="text_16">
      <!-- 0.36 -->
      <g style="fill:#262626;" transform="translate(1176.37 655.034906)scale(0.1 -0.1)">
       <defs>
        <path d="M 269 1209 
L 831 1284 
Q 928 806 1161 595 
Q 1394 384 1728 384 
Q 2125 384 2398 659 
Q 2672 934 2672 1341 
Q 2672 1728 2419 1979 
Q 2166 2231 1775 2231 
Q 1616 2231 1378 2169 
L 1441 2663 
Q 1497 2656 1531 2656 
Q 1891 2656 2178 2843 
Q 2466 3031 2466 3422 
Q 2466 3731 2256 3934 
Q 2047 4138 1716 4138 
Q 1388 4138 1169 3931 
Q 950 3725 888 3313 
L 325 3413 
Q 428 3978 793 4289 
Q 1159 4600 1703 4600 
Q 2078 4600 2393 4439 
Q 2709 4278 2876 4000 
Q 3044 3722 3044 3409 
Q 3044 3113 2884 2869 
Q 2725 2625 2413 2481 
Q 2819 2388 3044 2092 
Q 3269 1797 3269 1353 
Q 3269 753 2831 336 
Q 2394 -81 1725 -81 
Q 1122 -81 723 278 
Q 325 638 269 1209 
z
" id="ArialMT-33" transform="scale(0.015625)"/>
        <path d="M 3184 3459 
L 2625 3416 
Q 2550 3747 2413 3897 
Q 2184 4138 1850 4138 
Q 1581 4138 1378 3988 
Q 1113 3794 959 3422 
Q 806 3050 800 2363 
Q 1003 2672 1297 2822 
Q 1591 2972 1913 2972 
Q 2475 2972 2870 2558 
Q 3266 2144 3266 1488 
Q 3266 1056 3080 686 
Q 2894 316 2569 119 
Q 2244 -78 1831 -78 
Q 1128 -78 684 439 
Q 241 956 241 2144 
Q 241 3472 731 4075 
Q 1159 4600 1884 4600 
Q 2425 4600 2770 4297 
Q 3116 3994 3184 3459 
z
M 888 1484 
Q 888 1194 1011 928 
Q 1134 663 1356 523 
Q 1578 384 1822 384 
Q 2178 384 2434 671 
Q 2691 959 2691 1453 
Q 2691 1928 2437 2201 
Q 2184 2475 1800 2475 
Q 1419 2475 1153 2201 
Q 888 1928 888 1484 
z
" id="ArialMT-36" transform="scale(0.015625)"/>
       </defs>
       <use xlink:href="#ArialMT-30"/>
       <use x="55.615234" xlink:href="#ArialMT-2e"/>
       <use x="83.398438" xlink:href="#ArialMT-33"/>
       <use x="139.013672" xlink:href="#ArialMT-36"/>
      </g>
     </g>
    </g>
    <g id="ytick_10">
     <g id="line2d_14">
      <g>
       <use style="fill:#262626;stroke:#262626;stroke-width:0.8;" x="1169.37" xlink:href="#m7390c7d622" y="553.608"/>
      </g>
     </g>
     <g id="text_17">
      <!-- 0.48 -->
      <g style="fill:#262626;" transform="translate(1176.37 557.186906)scale(0.1 -0.1)">
       <defs>
        <path d="M 1131 2484 
Q 781 2613 612 2850 
Q 444 3088 444 3419 
Q 444 3919 803 4259 
Q 1163 4600 1759 4600 
Q 2359 4600 2725 4251 
Q 3091 3903 3091 3403 
Q 3091 3084 2923 2848 
Q 2756 2613 2416 2484 
Q 2838 2347 3058 2040 
Q 3278 1734 3278 1309 
Q 3278 722 2862 322 
Q 2447 -78 1769 -78 
Q 1091 -78 675 323 
Q 259 725 259 1325 
Q 259 1772 486 2073 
Q 713 2375 1131 2484 
z
M 1019 3438 
Q 1019 3113 1228 2906 
Q 1438 2700 1772 2700 
Q 2097 2700 2305 2904 
Q 2513 3109 2513 3406 
Q 2513 3716 2298 3927 
Q 2084 4138 1766 4138 
Q 1444 4138 1231 3931 
Q 1019 3725 1019 3438 
z
M 838 1322 
Q 838 1081 952 856 
Q 1066 631 1291 507 
Q 1516 384 1775 384 
Q 2178 384 2440 643 
Q 2703 903 2703 1303 
Q 2703 1709 2433 1975 
Q 2163 2241 1756 2241 
Q 1359 2241 1098 1978 
Q 838 1716 838 1322 
z
" id="ArialMT-38" transform="scale(0.015625)"/>
       </defs>
       <use xlink:href="#ArialMT-30"/>
       <use x="55.615234" xlink:href="#ArialMT-2e"/>
       <use x="83.398438" xlink:href="#ArialMT-34"/>
       <use x="139.013672" xlink:href="#ArialMT-38"/>
      </g>
     </g>
    </g>
    <g id="ytick_11">
     <g id="line2d_15">
      <g>
       <use style="fill:#262626;stroke:#262626;stroke-width:0.8;" x="1169.37" xlink:href="#m7390c7d622" y="455.76"/>
      </g>
     </g>
     <g id="text_18">
      <!-- 0.60 -->
      <g style="fill:#262626;" transform="translate(1176.37 459.338906)scale(0.1 -0.1)">
       <use xlink:href="#ArialMT-30"/>
       <use x="55.615234" xlink:href="#ArialMT-2e"/>
       <use x="83.398438" xlink:href="#ArialMT-36"/>
       <use x="139.013672" xlink:href="#ArialMT-30"/>
      </g>
     </g>
    </g>
    <g id="ytick_12">
     <g id="line2d_16">
      <g>
       <use style="fill:#262626;stroke:#262626;stroke-width:0.8;" x="1169.37" xlink:href="#m7390c7d622" y="357.912"/>
      </g>
     </g>
     <g id="text_19">
      <!-- 0.72 -->
      <g style="fill:#262626;" transform="translate(1176.37 361.490906)scale(0.1 -0.1)">
       <defs>
        <path d="M 303 3981 
L 303 4522 
L 3269 4522 
L 3269 4084 
Q 2831 3619 2401 2847 
Q 1972 2075 1738 1259 
Q 1569 684 1522 0 
L 944 0 
Q 953 541 1156 1306 
Q 1359 2072 1739 2783 
Q 2119 3494 2547 3981 
L 303 3981 
z
" id="ArialMT-37" transform="scale(0.015625)"/>
       </defs>
       <use xlink:href="#ArialMT-30"/>
       <use x="55.615234" xlink:href="#ArialMT-2e"/>
       <use x="83.398438" xlink:href="#ArialMT-37"/>
       <use x="139.013672" xlink:href="#ArialMT-32"/>
      </g>
     </g>
    </g>
    <g id="ytick_13">
     <g id="line2d_17">
      <g>
       <use style="fill:#262626;stroke:#262626;stroke-width:0.8;" x="1169.37" xlink:href="#m7390c7d622" y="260.064"/>
      </g>
     </g>
     <g id="text_20">
      <!-- 0.84 -->
      <g style="fill:#262626;" transform="translate(1176.37 263.642906)scale(0.1 -0.1)">
       <use xlink:href="#ArialMT-30"/>
       <use x="55.615234" xlink:href="#ArialMT-2e"/>
       <use x="83.398438" xlink:href="#ArialMT-38"/>
       <use x="139.013672" xlink:href="#ArialMT-34"/>
      </g>
     </g>
    </g>
    <g id="ytick_14">
     <g id="line2d_18">
      <g>
       <use style="fill:#262626;stroke:#262626;stroke-width:0.8;" x="1169.37" xlink:href="#m7390c7d622" y="162.216"/>
      </g>
     </g>
     <g id="text_21">
      <!-- 0.96 -->
      <g style="fill:#262626;" transform="translate(1176.37 165.794906)scale(0.1 -0.1)">
       <defs>
        <path d="M 350 1059 
L 891 1109 
Q 959 728 1153 556 
Q 1347 384 1650 384 
Q 1909 384 2104 503 
Q 2300 622 2425 820 
Q 2550 1019 2634 1356 
Q 2719 1694 2719 2044 
Q 2719 2081 2716 2156 
Q 2547 1888 2255 1720 
Q 1963 1553 1622 1553 
Q 1053 1553 659 1965 
Q 266 2378 266 3053 
Q 266 3750 677 4175 
Q 1088 4600 1706 4600 
Q 2153 4600 2523 4359 
Q 2894 4119 3086 3673 
Q 3278 3228 3278 2384 
Q 3278 1506 3087 986 
Q 2897 466 2520 194 
Q 2144 -78 1638 -78 
Q 1100 -78 759 220 
Q 419 519 350 1059 
z
M 2653 3081 
Q 2653 3566 2395 3850 
Q 2138 4134 1775 4134 
Q 1400 4134 1122 3828 
Q 844 3522 844 3034 
Q 844 2597 1108 2323 
Q 1372 2050 1759 2050 
Q 2150 2050 2401 2323 
Q 2653 2597 2653 3081 
z
" id="ArialMT-39" transform="scale(0.015625)"/>
       </defs>
       <use xlink:href="#ArialMT-30"/>
       <use x="55.615234" xlink:href="#ArialMT-2e"/>
       <use x="83.398438" xlink:href="#ArialMT-39"/>
       <use x="139.013672" xlink:href="#ArialMT-36"/>
      </g>
     </g>
    </g>
   </g>
   <g id="QuadMesh_1">
    <path clip-path="url(#pb22c55359e)" d="M 1128.6 945 
L 1169.37 945 
L 1169.37 912.384 
L 1128.6 912.384 
L 1128.6 945 
" style="fill:#760521;"/>
    <path clip-path="url(#pb22c55359e)" d="M 1128.6 912.384 
L 1169.37 912.384 
L 1169.37 879.768 
L 1128.6 879.768 
L 1128.6 912.384 
" style="fill:#930e26;"/>
    <path clip-path="url(#pb22c55359e)" d="M 1128.6 879.768 
L 1169.37 879.768 
L 1169.37 847.152 
L 1128.6 847.152 
L 1128.6 879.768 
" style="fill:#b1182b;"/>
    <path clip-path="url(#pb22c55359e)" d="M 1128.6 847.152 
L 1169.37 847.152 
L 1169.37 814.536 
L 1128.6 814.536 
L 1128.6 847.152 
" style="fill:#bf3338;"/>
    <path clip-path="url(#pb22c55359e)" d="M 1128.6 814.536 
L 1169.37 814.536 
L 1169.37 781.92 
L 1128.6 781.92 
L 1128.6 814.536 
" style="fill:#cf5246;"/>
    <path clip-path="url(#pb22c55359e)" d="M 1128.6 781.92 
L 1169.37 781.92 
L 1169.37 749.304 
L 1128.6 749.304 
L 1128.6 781.92 
" style="fill:#dc6e57;"/>
    <path clip-path="url(#pb22c55359e)" d="M 1128.6 749.304 
L 1169.37 749.304 
L 1169.37 716.688 
L 1128.6 716.688 
L 1128.6 749.304 
" style="fill:#e8896c;"/>
    <path clip-path="url(#pb22c55359e)" d="M 1128.6 716.688 
L 1169.37 716.688 
L 1169.37 684.072 
L 1128.6 684.072 
L 1128.6 716.688 
" style="fill:#f3a481;"/>
    <path clip-path="url(#pb22c55359e)" d="M 1128.6 684.072 
L 1169.37 684.072 
L 1169.37 651.456 
L 1128.6 651.456 
L 1128.6 684.072 
" style="fill:#f8bb9e;"/>
    <path clip-path="url(#pb22c55359e)" d="M 1128.6 651.456 
L 1169.37 651.456 
L 1169.37 618.84 
L 1128.6 618.84 
L 1128.6 651.456 
" style="fill:#fbd0b9;"/>
    <path clip-path="url(#pb22c55359e)" d="M 1128.6 618.84 
L 1169.37 618.84 
L 1169.37 586.224 
L 1128.6 586.224 
L 1128.6 618.84 
" style="fill:#fce0d0;"/>
    <path clip-path="url(#pb22c55359e)" d="M 1128.6 586.224 
L 1169.37 586.224 
L 1169.37 553.608 
L 1128.6 553.608 
L 1128.6 586.224 
" style="fill:#f9ebe3;"/>
    <path clip-path="url(#pb22c55359e)" d="M 1128.6 553.608 
L 1169.37 553.608 
L 1169.37 520.992 
L 1128.6 520.992 
L 1128.6 553.608 
" style="fill:#f6f7f7;"/>
    <path clip-path="url(#pb22c55359e)" d="M 1128.6 520.992 
L 1169.37 520.992 
L 1169.37 488.376 
L 1128.6 488.376 
L 1128.6 520.992 
" style="fill:#e7f0f4;"/>
    <path clip-path="url(#pb22c55359e)" d="M 1128.6 488.376 
L 1169.37 488.376 
L 1169.37 455.76 
L 1128.6 455.76 
L 1128.6 488.376 
" style="fill:#d8e9f1;"/>
    <path clip-path="url(#pb22c55359e)" d="M 1128.6 455.76 
L 1169.37 455.76 
L 1169.37 423.144 
L 1128.6 423.144 
L 1128.6 455.76 
" style="fill:#c5dfec;"/>
    <path clip-path="url(#pb22c55359e)" d="M 1128.6 423.144 
L 1169.37 423.144 
L 1169.37 390.528 
L 1128.6 390.528 
L 1128.6 423.144 
" style="fill:#acd2e5;"/>
    <path clip-path="url(#pb22c55359e)" d="M 1128.6 390.528 
L 1169.37 390.528 
L 1169.37 357.912 
L 1128.6 357.912 
L 1128.6 390.528 
" style="fill:#90c4dd;"/>
    <path clip-path="url(#pb22c55359e)" d="M 1128.6 357.912 
L 1169.37 357.912 
L 1169.37 325.296 
L 1128.6 325.296 
L 1128.6 357.912 
" style="fill:#71b0d3;"/>
    <path clip-path="url(#pb22c55359e)" d="M 1128.6 325.296 
L 1169.37 325.296 
L 1169.37 292.68 
L 1128.6 292.68 
L 1128.6 325.296 
" style="fill:#529dc8;"/>
    <path clip-path="url(#pb22c55359e)" d="M 1128.6 292.68 
L 1169.37 292.68 
L 1169.37 260.064 
L 1128.6 260.064 
L 1128.6 292.68 
" style="fill:#3c8abe;"/>
    <path clip-path="url(#pb22c55359e)" d="M 1128.6 260.064 
L 1169.37 260.064 
L 1169.37 227.448 
L 1128.6 227.448 
L 1128.6 260.064 
" style="fill:#2e77b5;"/>
    <path clip-path="url(#pb22c55359e)" d="M 1128.6 227.448 
L 1169.37 227.448 
L 1169.37 194.832 
L 1128.6 194.832 
L 1128.6 227.448 
" style="fill:#2065ab;"/>
    <path clip-path="url(#pb22c55359e)" d="M 1128.6 194.832 
L 1169.37 194.832 
L 1169.37 162.216 
L 1128.6 162.216 
L 1128.6 194.832 
" style="fill:#15508d;"/>
    <path clip-path="url(#pb22c55359e)" d="M 1128.6 162.216 
L 1169.37 162.216 
L 1169.37 129.6 
L 1128.6 129.6 
L 1128.6 162.216 
" style="fill:#0a3b70;"/>
   </g>
   <g id="LineCollection_1"/>
   <g id="patch_9">
    <path d="M 1128.6 945 
L 1128.6 912.384 
L 1128.6 162.216 
L 1128.6 129.6 
L 1169.37 129.6 
L 1169.37 162.216 
L 1169.37 912.384 
L 1169.37 945 
z
" style="fill:none;stroke:#ffffff;stroke-linecap:square;stroke-linejoin:miter;stroke-width:0.8;"/>
   </g>
  </g>
 </g>
 <defs>
  <clipPath id="p59114d7c27">
   <rect height="815.4" width="776.571429" x="296.228571" y="129.6"/>
  </clipPath>
  <clipPath id="pb22c55359e">
   <rect height="815.4" width="40.77" x="1128.6" y="129.6"/>
  </clipPath>
 </defs>
</svg>
